<?xml version="1.0" standalone="no"?>
<!DOCTYPE svg PUBLIC "-//W3C//DTD SVG 20010904//EN"
 "http://www.w3.org/TR/2001/REC-SVG-20010904/DTD/svg10.dtd">
<svg version="1.0" xmlns="http://www.w3.org/2000/svg"
 width="500.000000pt" height="500.000000pt" viewBox="0 0 500.000000 500.000000"
 preserveAspectRatio="xMidYMid meet">

<g transform="translate(0.000000,500.000000) scale(0.100000,-0.100000)"
fill="#000000" stroke="none">
<path d="M2016 3724 c-129 -25 -333 -104 -321 -124 4 -6 -1 -7 -11 -3 -12 4
-15 3 -10 -5 5 -8 1 -10 -10 -5 -11 4 -15 2 -11 -4 4 -6 -1 -10 -11 -9 -9 0
-16 -5 -14 -12 1 -8 -2 -11 -8 -7 -21 13 -182 -118 -274 -223 -80 -92 -170
-228 -160 -243 5 -8 3 -10 -6 -4 -10 6 -12 4 -7 -9 4 -9 3 -15 -2 -12 -12 8
-45 -70 -36 -85 5 -7 4 -10 -3 -5 -15 9 -57 -126 -72 -233 -19 -127 -8 -333
24 -453 88 -331 289 -593 585 -763 332 -191 751 -193 1108 -6 332 175 552 479
610 846 23 147 14 377 -21 508 -27 105 -119 312 -135 303 -5 -3 -8 2 -7 12 0
9 -4 16 -10 15 -7 -1 -11 5 -10 15 0 9 -5 16 -12 14 -8 -1 -11 2 -7 8 9 14
-14 42 -28 33 -5 -3 -7 -1 -3 5 14 23 -241 261 -265 246 -5 -3 -8 0 -7 8 2 7
-5 12 -14 12 -10 -1 -16 3 -15 10 1 6 -6 10 -15 10 -10 -1 -15 3 -11 9 4 6 0
8 -11 4 -10 -4 -15 -3 -11 3 10 16 -154 88 -258 115 -179 45 -393 57 -531 29z
m174 -4 c-174 -10 -215 -18 -405 -85 -16 -6 -17 -5 -5 4 23 17 160 60 236 75
38 8 121 14 184 13 l115 0 -125 -7z m225 -85 c214 -35 407 -132 570 -286 103
-99 166 -183 230 -314 208 -419 127 -918 -203 -1254 -62 -64 -65 -65 -75 -43
-14 31 -41 30 -33 -2 13 -51 -11 -32 -66 54 -32 49 -58 97 -58 105 0 8 -3 15
-6 15 -5 0 -53 -31 -73 -47 -3 -2 4 -10 15 -18 29 -19 124 -167 124 -191 0
-11 -13 -26 -31 -36 -39 -23 -49 -23 -49 2 0 34 -28 23 -32 -12 l-4 -33 -22
45 c-26 55 -29 78 -7 60 23 -19 29 -5 15 30 -15 36 -25 38 -34 8 -6 -22 -8
-21 -26 12 -26 48 -26 64 1 50 30 -17 40 -8 20 19 l-18 23 -51 -26 c-48 -24
-67 -46 -41 -46 14 0 100 -187 93 -204 -4 -11 -65 -36 -87 -36 -3 0 -7 10 -9
22 -5 32 -28 35 -28 4 0 -14 -4 -26 -8 -26 -4 0 -15 53 -25 117 -9 64 -19 118
-21 121 -6 5 -78 -18 -90 -28 -11 -11 1 -60 14 -60 6 0 10 11 10 25 0 14 4 25
8 25 10 0 41 -222 33 -232 -7 -8 -173 -26 -190 -20 -7 2 -11 42 -10 115 0 88
3 107 11 90 15 -32 28 -29 28 7 l0 30 -70 0 -70 0 0 -30 c0 -36 13 -39 28 -7
8 17 11 -2 11 -90 l1 -113 -52 1 c-87 1 -133 12 -130 32 3 20 -18 23 -36 5
-22 -22 -23 0 0 46 24 50 38 59 38 24 l1 -23 19 24 c27 31 26 54 0 46 -24 -8
-26 5 -5 46 17 31 35 31 35 -2 0 -28 17 -23 24 7 4 15 6 28 4 29 -10 8 -89 45
-98 45 -5 0 -10 -6 -10 -14 0 -8 -20 -58 -44 -110 -36 -77 -49 -96 -66 -96
-18 0 -55 14 -69 26 -2 2 6 15 18 31 15 18 20 35 16 50 -4 19 -1 23 19 23 28
0 66 42 66 73 0 22 -84 107 -106 107 -8 0 -14 -7 -14 -16 0 -15 -105 -157
-135 -182 -13 -11 -24 -7 -70 25 -58 40 -62 56 -27 96 14 16 16 16 34 0 30
-27 77 -21 110 15 35 40 36 81 4 118 l-23 28 44 34 45 34 86 -40 c149 -69 187
-77 367 -76 147 0 166 2 238 27 43 15 108 42 145 61 l67 34 40 -34 c22 -19 59
-41 81 -50 39 -15 45 -15 77 1 35 16 67 64 67 99 0 26 -25 79 -50 104 -25 27
-28 20 62 127 109 129 158 265 158 440 0 180 -38 273 -165 401 -121 122 -224
164 -403 164 -102 0 -178 -17 -262 -60 l-60 -31 -73 35 c-39 19 -97 40 -128
46 -81 18 -248 8 -324 -19 -157 -56 -296 -201 -346 -360 -24 -79 -29 -238 -9
-322 26 -111 95 -238 192 -350 l48 -56 -22 -19 c-30 -27 -50 -81 -43 -115 7
-30 57 -79 81 -79 25 0 15 -16 -57 -85 l-70 -68 -45 44 c-73 71 -140 169 -193
280 -81 170 -93 224 -98 444 -4 178 -3 196 21 287 51 201 148 371 296 519 126
126 258 208 424 264 160 54 357 69 531 40z m325 -20 c28 -14 50 -28 50 -30 0
-5 -99 42 -109 51 -12 11 15 1 59 -21z m-688 -445 c123 -38 248 -141 303 -250
29 -56 65 -186 65 -231 0 -17 -11 -41 -27 -59 l-28 -30 -40 34 c-37 32 -40 38
-41 89 -4 149 -149 305 -312 335 -183 33 -358 -61 -431 -230 -10 -24 -31 -52
-47 -63 l-28 -18 22 -18 c16 -13 22 -28 22 -59 0 -106 54 -233 149 -353 l61
-76 -47 -38 -46 -38 -53 58 c-230 247 -250 593 -47 812 44 49 46 49 56 28 5
-13 14 -23 19 -23 15 0 21 29 9 44 -14 16 -6 24 59 56 75 39 121 49 221 49 70
1 115 -5 161 -19z m660 0 c159 -49 291 -182 340 -343 17 -58 20 -86 16 -180
-8 -168 -60 -292 -178 -418 l-55 -59 -42 36 c-24 19 -43 39 -43 44 0 5 23 35
50 67 59 68 126 198 139 267 6 32 17 55 32 66 23 18 21 50 -4 50 -9 0 -20 24
-31 67 -29 120 -124 231 -234 274 -78 31 -204 31 -282 1 l-54 -22 -43 42 c-24
23 -43 45 -43 48 0 10 89 49 145 65 77 21 211 19 287 -5z m-757 -161 c33 -6
72 -17 87 -25 l28 -15 -21 -40 c-27 -54 -59 -181 -59 -236 0 -48 11 -75 44
-111 l21 -24 -57 -51 c-31 -29 -95 -87 -141 -129 -46 -43 -88 -78 -94 -78 -14
0 -98 90 -126 137 -43 69 -69 160 -70 244 -1 64 4 86 27 132 51 104 145 180
245 197 25 4 49 8 52 9 3 0 32 -4 64 -10z m764 -34 c94 -52 156 -144 176 -261
15 -91 -29 -226 -107 -328 -68 -89 -78 -95 -112 -68 -52 41 -266 237 -266 244
0 4 14 23 31 43 31 35 32 38 26 109 -3 43 -18 112 -37 166 -17 51 -28 96 -23
100 19 19 84 29 168 27 78 -2 97 -7 144 -32z m-539 -108 c16 -25 16 -33 2 -90
l-15 -62 84 -81 c46 -44 125 -118 174 -163 146 -135 156 -148 149 -176 -7 -29
17 -45 40 -26 11 9 23 4 54 -22 107 -90 223 -204 228 -224 9 -35 -20 -73 -55
-73 -21 0 -47 16 -97 62 -284 254 -599 545 -654 602 -41 43 -45 51 -43 93 2
56 20 134 45 192 l19 44 26 -24 c14 -13 33 -37 43 -52z m-1093 -59 c-3 -8 -6
-5 -6 6 -1 11 2 17 5 13 3 -3 4 -12 1 -19z m-10 -60 c-3 -7 -5 -2 -5 12 0 14
2 19 5 13 2 -7 2 -19 0 -25z m-10 -90 c-2 -13 -4 -5 -4 17 -1 22 1 32 4 23 2
-10 2 -28 0 -40z m1078 -178 c38 -39 38 -40 20 -60 -30 -34 -460 -429 -485
-447 -45 -32 -100 -13 -100 36 0 20 24 50 103 127 146 144 406 384 415 384 4
0 25 -18 47 -40z m220 -199 c69 -63 124 -119 122 -125 -6 -19 -78 -48 -146
-58 -36 -6 -109 -8 -162 -6 -76 4 -107 10 -155 32 l-59 28 129 124 c71 69 133
123 137 122 4 -2 64 -54 134 -117z m-369 -201 c38 -16 89 -32 112 -36 26 -4
47 -14 53 -25 13 -25 35 -24 42 1 4 17 14 20 64 20 71 1 127 13 216 47 l68 27
47 -47 46 -46 -65 -30 c-151 -68 -181 -75 -349 -75 -169 0 -213 10 -343 75
l-60 31 44 44 c24 24 46 44 49 44 3 0 37 -13 76 -30z m-337 -266 c-23 -24 -46
-41 -52 -37 -5 3 13 27 39 54 27 27 50 45 53 38 2 -6 -16 -31 -40 -55z m211
-57 c0 -18 -57 -83 -65 -75 -8 7 45 87 58 88 4 0 7 -6 7 -13z m-107 -153 c-22
-29 -29 -34 -31 -20 -2 9 9 34 25 54 21 28 29 33 31 20 2 -10 -9 -34 -25 -54z"/>
<path d="M2000 3589 c-1 -2 -2 -64 -3 -137 l-2 -132 58 0 c90 0 113 34 105
155 -5 85 -25 106 -102 113 -31 2 -56 3 -56 1z m90 -139 c0 -67 -4 -110 -10
-110 -6 0 -10 43 -10 110 0 67 4 110 10 110 6 0 10 -43 10 -110z"/>
<path d="M2197 3573 c-4 -3 -2 -12 4 -19 7 -9 10 -55 8 -129 l-4 -115 36 0 37
0 -5 61 c-5 50 -3 61 8 57 9 -3 16 -25 19 -59 5 -52 6 -54 35 -54 29 0 30 1
26 45 -1 25 -10 53 -18 63 -15 15 -15 19 0 35 24 26 21 77 -5 102 -17 15 -35
20 -78 20 -31 0 -60 -3 -63 -7z m97 -29 c13 -34 3 -94 -15 -94 -5 0 -9 25 -9
55 0 53 11 72 24 39z"/>
<path d="M2394 3366 c-10 -26 0 -51 21 -51 16 0 20 7 20 30 0 33 -30 49 -41
21z"/>
<path d="M2285 2880 c-4 -7 -3 -16 3 -22 14 -14 45 -2 40 15 -6 16 -34 21 -43
7z"/>
<path d="M1444 2526 c-7 -19 3 -36 22 -36 10 0 14 8 12 22 -4 26 -26 36 -34
14z"/>
<path d="M1524 2319 c-10 -17 23 -46 37 -32 7 7 9 19 6 27 -7 18 -33 21 -43 5z"/>
<path d="M2975 2880 c-4 -7 -3 -16 3 -22 14 -14 45 -2 40 15 -6 16 -34 21 -43
7z"/>
<path d="M2904 2389 c-3 -6 0 -17 7 -25 18 -17 44 -2 36 20 -7 18 -33 21 -43
5z"/>
<path d="M2340 2451 c0 -15 6 -21 21 -21 14 0 19 5 17 17 -5 26 -38 29 -38 4z"/>
<path d="M1927 2317 c-3 -8 -2 -20 3 -27 11 -18 42 -4 38 17 -4 22 -34 29 -41
10z"/>
<path d="M1927 2013 c-3 -5 -2 -15 3 -22 10 -17 43 -6 38 12 -6 15 -34 22 -41
10z"/>
</g>
</svg>
