<?xml version="1.0" encoding="UTF-8" standalone="no"?>
<svg
   xmlns:dc="http://purl.org/dc/elements/1.1/"
   xmlns:cc="http://creativecommons.org/ns#"
   xmlns:rdf="http://www.w3.org/1999/02/22-rdf-syntax-ns#"
   xmlns:svg="http://www.w3.org/2000/svg"
   xmlns="http://www.w3.org/2000/svg"
   xmlns:sodipodi="http://sodipodi.sourceforge.net/DTD/sodipodi-0.dtd"
   xmlns:inkscape="http://www.inkscape.org/namespaces/inkscape"
   version="1.1"
   id="svg222"
   width="500"
   height="500"
   viewBox="0 0 500 500"
   sodipodi:docname="logo3.svg"
   inkscape:version="1.0.2-2 (e86c870879, 2021-01-15)"
   inkscape:export-filename="C:\Users\tessa\OneDrive\Documents\MULTIMEDIJSKI SUSTAVI\ZAVRSNI ISPIT\logo5.png"
   inkscape:export-xdpi="96"
   inkscape:export-ydpi="96">
  <metadata
     id="metadata228">
    <rdf:RDF>
      <cc:Work
         rdf:about="">
        <dc:format>image/svg+xml</dc:format>
        <dc:type
           rdf:resource="http://purl.org/dc/dcmitype/StillImage" />
        <dc:title></dc:title>
      </cc:Work>
    </rdf:RDF>
  </metadata>
  <defs
     id="defs226">
    <inkscape:path-effect
       effect="spiro"
       id="path-effect106"
       is_visible="true"
       lpeversion="1" />
    <inkscape:path-effect
       effect="bspline"
       id="path-effect102"
       is_visible="true"
       lpeversion="1"
       weight="33.333333"
       steps="2"
       helper_size="0"
       apply_no_weight="true"
       apply_with_weight="true"
       only_selected="false" />
  </defs>
  <sodipodi:namedview
     pagecolor="#ffffff"
     bordercolor="#666666"
     borderopacity="1"
     objecttolerance="10"
     gridtolerance="10"
     guidetolerance="10"
     inkscape:pageopacity="0"
     inkscape:pageshadow="2"
     inkscape:window-width="1920"
     inkscape:window-height="991"
     id="namedview224"
     showgrid="false"
     inkscape:zoom="1.1596551"
     inkscape:cx="39.717635"
     inkscape:cy="201.80621"
     inkscape:window-x="-9"
     inkscape:window-y="-9"
     inkscape:window-maximized="1"
     inkscape:current-layer="g230"
     inkscape:document-rotation="0"
     inkscape:snap-grids="false"
     inkscape:snap-bbox="true" />
  <g
     inkscape:groupmode="layer"
     inkscape:label="Image"
     id="g230">
    <path
       style="fill:#ffdd55;stroke-width:0.609756"
       d=""
       id="path240" />
    <g
       id="g146"
       transform="translate(-26.732089,-5.1739545)">
      <g
         id="g90">
        <path
           style="fill:#b9b9b9;fill-opacity:1"
           d="m 202.5,301 c 0.99549,-1.1 2.03498,-2 2.30998,-2 0.275,0 -0.31449,0.9 -1.30998,2 -0.99549,1.1 -2.03498,2 -2.30998,2 -0.275,0 0.31449,-0.9 1.30998,-2 z m 9,-1 c 0.99549,-1.1 2.03498,-2 2.30998,-2 0.275,0 -0.31449,0.9 -1.30998,2 -0.99549,1.1 -2.03498,2 -2.30998,2 -0.275,0 0.31449,-0.9 1.30998,-2 z m 80.37244,-3.75 c -1.24387,-1.58606 -1.2085,-1.62143 0.37756,-0.37756 1.66575,1.30637 2.19548,2.12756 1.37244,2.12756 -0.20765,0 -0.99515,-0.7875 -1.75,-1.75 z m -9,-1 c -1.24387,-1.58606 -1.2085,-1.62143 0.37756,-0.37756 1.66575,1.30637 2.19548,2.12756 1.37244,2.12756 -0.20765,0 -0.99515,-0.7875 -1.75,-1.75 z M 191,294.62244 c 0,-0.20765 0.7875,-0.99515 1.75,-1.75 1.58606,-1.24387 1.62143,-1.2085 0.37756,0.37756 C 191.82119,294.91575 191,295.44548 191,294.62244 Z m 123,-2.93535 c 0,-0.1721 1.4625,-1.6346 3.25,-3.25 l 3.25,-2.93709 -2.93709,3.25 C 314.82513,291.77946 314,292.45965 314,291.68709 Z M 301.87244,288.25 c -1.24387,-1.58606 -1.2085,-1.62143 0.37756,-0.37756 0.9625,0.75485 1.75,1.54235 1.75,1.75 0,0.82304 -0.82119,0.29331 -2.12756,-1.37244 z m -114.46745,-1.5 -1.90499,-2.25 2.25,1.90499 c 2.11444,1.79022 2.70524,2.59501 1.90499,2.59501 -0.18976,0 -1.20226,-1.0125 -2.25,-2.25 z M 216,288.62244 c 0,-0.20765 0.7875,-0.99515 1.75,-1.75 1.58606,-1.24387 1.62143,-1.2085 0.37756,0.37756 C 216.82119,288.91575 216,289.44548 216,288.62244 Z M 279.87244,285.25 c -1.24387,-1.58606 -1.2085,-1.62143 0.37756,-0.37756 1.66575,1.30637 2.19548,2.12756 1.37244,2.12756 -0.20765,0 -0.99515,-0.7875 -1.75,-1.75 z M 228.5,284 c 0.99549,-1.1 2.03498,-2 2.30998,-2 0.275,0 -0.31449,0.9 -1.30998,2 -0.99549,1.1 -2.03498,2 -2.30998,2 -0.275,0 0.31449,-0.9 1.30998,-2 z m 42.37244,0.25 c -1.24387,-1.58606 -1.2085,-1.62143 0.37756,-0.37756 0.9625,0.75485 1.75,1.54235 1.75,1.75 0,0.82304 -0.82119,0.29331 -2.12756,-1.37244 z M 195.5,283 c 0.99549,-1.1 2.03498,-2 2.30998,-2 0.275,0 -0.31449,0.9 -1.30998,2 -0.99549,1.1 -2.03498,2 -2.30998,2 -0.275,0 0.31449,-0.9 1.30998,-2 z m 10.5,-2.37756 c 0,-0.20765 0.7875,-0.99515 1.75,-1.75 1.58606,-1.24387 1.62143,-1.2085 0.37756,0.37756 C 206.82119,280.91575 206,281.44548 206,280.62244 Z M 289.87244,277.25 c -1.24387,-1.58606 -1.2085,-1.62143 0.37756,-0.37756 1.66575,1.30637 2.19548,2.12756 1.37244,2.12756 -0.20765,0 -0.99515,-0.7875 -1.75,-1.75 z M 231.5,274 c 0.99549,-1.1 2.03498,-2 2.30998,-2 0.275,0 -0.31449,0.9 -1.30998,2 -0.99549,1.1 -2.03498,2 -2.30998,2 -0.275,0 0.31449,-0.9 1.30998,-2 z m 36.37244,0.25 c -1.24387,-1.58606 -1.2085,-1.62143 0.37756,-0.37756 1.66575,1.30637 2.19548,2.12756 1.37244,2.12756 -0.20765,0 -0.99515,-0.7875 -1.75,-1.75 z m -10,-2 c -1.24387,-1.58606 -1.2085,-1.62143 0.37756,-0.37756 0.9625,0.75485 1.75,1.54235 1.75,1.75 0,0.82304 -0.82119,0.29331 -2.12756,-1.37244 z M 242,271.62244 c 0,-0.20765 0.7875,-0.99515 1.75,-1.75 1.58606,-1.24387 1.62143,-1.2085 0.37756,0.37756 C 242.82119,271.91575 242,272.44548 242,271.62244 Z m -33,-1 c 0,-0.20765 0.7875,-0.99515 1.75,-1.75 1.58606,-1.24387 1.62143,-1.2085 0.37756,0.37756 C 209.82119,270.91575 209,271.44548 209,270.62244 Z M 221.5,266 c 0.99549,-1.1 2.03498,-2 2.30998,-2 0.275,0 -0.31449,0.9 -1.30998,2 -0.99549,1.1 -2.03498,2 -2.30998,2 -0.275,0 0.31449,-0.9 1.30998,-2 z m 34.37244,-2.75 c -1.24387,-1.58606 -1.2085,-1.62143 0.37756,-0.37756 1.66575,1.30637 2.19548,2.12756 1.37244,2.12756 -0.20765,0 -0.99515,-0.7875 -1.75,-1.75 z M 224.5,256 c 0.99549,-1.1 2.03498,-2 2.30998,-2 0.275,0 -0.31449,0.9 -1.30998,2 -0.99549,1.1 -2.03498,2 -2.30998,2 -0.275,0 0.31449,-0.9 1.30998,-2 z m 31.37244,-9.75 c -1.24387,-1.58606 -1.2085,-1.62143 0.37756,-0.37756 0.9625,0.75485 1.75,1.54235 1.75,1.75 0,0.82304 -0.82119,0.29331 -2.12756,-1.37244 z m 103.20651,-3.83333 c 0.048,-1.16495 0.28494,-1.4019 0.60416,-0.60417 0.28887,0.72187 0.25335,1.58437 -0.0789,1.91667 -0.33229,0.33229 -0.56864,-0.25834 -0.52522,-1.3125 z M 339.30987,237.5 c 0.006,-3.3 0.1923,-4.52944 0.41486,-2.73209 0.22256,1.79735 0.21797,4.49735 -0.0102,6 -0.22818,1.50265 -0.41027,0.0321 -0.40466,-3.26791 z M 322.40499,196.75 320.5,194.5 l 2.25,1.90499 c 1.2375,1.04774 2.25,2.06024 2.25,2.25 0,0.80025 -0.80479,0.20945 -2.59501,-1.90499 z M 214.25,180.28375 c 1.5125,-0.22913 3.9875,-0.22913 5.5,0 1.5125,0.22912 0.275,0.41659 -2.75,0.41659 -3.025,0 -4.2625,-0.18747 -2.75,-0.41659 z m 66,0 c 1.5125,-0.22913 3.9875,-0.22913 5.5,0 1.5125,0.22912 0.275,0.41659 -2.75,0.41659 -3.025,0 -4.2625,-0.18747 -2.75,-0.41659 z M 166.5,167 c 2.14824,-2.2 4.1309,-4 4.4059,-4 0.275,0 -1.25766,1.8 -3.4059,4 -2.14824,2.2 -4.1309,4 -4.4059,4 -0.275,0 1.25766,-1.8 3.4059,-4 z"
           id="path98" />
        <path
           style="fill:#8c8c8c;fill-opacity:1"
           d="m 316.27236,238 c 0,-2.475 0.19502,-3.4875 0.43337,-2.25 0.23836,1.2375 0.23836,3.2625 0,4.5 -0.23835,1.2375 -0.43337,0.225 -0.43337,-2.25 z m 17.88553,0 c 0,-1.375 0.22698,-1.9375 0.50439,-1.25 0.27741,0.6875 0.27741,1.8125 0,2.5 -0.27741,0.6875 -0.50439,0.125 -0.50439,-1.25 z m -66,-2 c 0,-1.375 0.22698,-1.9375 0.50439,-1.25 0.27741,0.6875 0.27741,1.8125 0,2.5 -0.27741,0.6875 -0.50439,0.125 -0.50439,-1.25 z M 212.8125,203.31689 c 0.72187,-0.28887 1.58437,-0.25335 1.91667,0.0789 0.33229,0.33229 -0.25834,0.56864 -1.3125,0.52522 -1.16495,-0.048 -1.4019,-0.28494 -0.60417,-0.60416 z m 6,0 c 0.72187,-0.28887 1.58437,-0.25335 1.91667,0.0789 0.33229,0.33229 -0.25834,0.56864 -1.3125,0.52522 -1.16495,-0.048 -1.4019,-0.28494 -0.60417,-0.60416 z m 62.4375,-0.006 c 0.9625,-0.25152 2.5375,-0.25152 3.5,0 0.9625,0.25153 0.175,0.45733 -1.75,0.45733 -1.925,0 -2.7125,-0.2058 -1.75,-0.45733 z m -67.4375,-4.99378 c 0.72187,-0.28887 1.58437,-0.25335 1.91667,0.0789 0.33229,0.33229 -0.25834,0.56864 -1.3125,0.52522 -1.16495,-0.048 -1.4019,-0.28494 -0.60417,-0.60416 z m 4,0 c 0.72187,-0.28887 1.58437,-0.25335 1.91667,0.0789 0.33229,0.33229 -0.25834,0.56864 -1.3125,0.52522 -1.16495,-0.048 -1.4019,-0.28494 -0.60417,-0.60416 z m 61,0 c 0.72187,-0.28887 1.58438,-0.25335 1.91667,0.0789 0.33229,0.33229 -0.25834,0.56864 -1.3125,0.52522 -1.16495,-0.048 -1.4019,-0.28494 -0.60417,-0.60416 z m 7,0 c 0.72187,-0.28887 1.58438,-0.25335 1.91667,0.0789 0.33229,0.33229 -0.25834,0.56864 -1.3125,0.52522 -1.16495,-0.048 -1.4019,-0.28494 -0.60417,-0.60416 z m -71.54875,-13.03447 c 1.52006,-0.22986 3.77006,-0.22371 5,0.0136 1.22994,0.23736 -0.0137,0.42542 -2.76375,0.41792 -2.75,-0.008 -3.75631,-0.20172 -2.23625,-0.43157 z m 67.48625,0.0553 c 0.6875,-0.27741 1.8125,-0.27741 2.5,0 0.6875,0.27741 0.125,0.50439 -1.25,0.50439 -1.375,0 -1.9375,-0.22698 -1.25,-0.50439 z M 172,171.5 c 1.29175,-1.375 2.57363,-2.5 2.84863,-2.5 0.275,0 -0.55688,1.125 -1.84863,2.5 -1.29175,1.375 -2.57363,2.5 -2.84863,2.5 -0.275,0 0.55688,-1.125 1.84863,-2.5 z"
           id="path96" />
        <path
           style="fill:#606060;fill-opacity:1"
           d="m 327,337.62244 c 0,-0.20765 0.7875,-0.99515 1.75,-1.75 1.58606,-1.24387 1.62143,-1.2085 0.37756,0.37756 C 327.82119,337.91575 327,338.44548 327,337.62244 Z m 7,-7 c 0,-0.20765 0.7875,-0.99515 1.75,-1.75 1.58606,-1.24387 1.62143,-1.2085 0.37756,0.37756 C 334.82119,330.91575 334,331.44548 334,330.62244 Z M 170.40499,326.75 168.5,324.5 l 2.25,1.90499 c 2.11444,1.79022 2.70524,2.59501 1.90499,2.59501 -0.18976,0 -1.20226,-1.0125 -2.25,-2.25 z M 242.75,314.33772 c 0.6875,-0.27741 1.8125,-0.27741 2.5,0 0.6875,0.27741 0.125,0.50439 -1.25,0.50439 -1.375,0 -1.9375,-0.22698 -1.25,-0.50439 z M 198,305.62244 c 0,-0.20765 0.7875,-0.99515 1.75,-1.75 1.58606,-1.24387 1.62143,-1.2085 0.37756,0.37756 C 198.82119,305.91575 198,306.44548 198,305.62244 Z m 123.07895,-1.20577 c 0.048,-1.16495 0.28494,-1.4019 0.60416,-0.60417 0.28887,0.72187 0.25335,1.58438 -0.0789,1.91667 -0.33229,0.33229 -0.56864,-0.25834 -0.52522,-1.3125 z M 294.87244,299.25 c -1.24387,-1.58606 -1.2085,-1.62143 0.37756,-0.37756 1.66575,1.30637 2.19548,2.12756 1.37244,2.12756 -0.20765,0 -0.99515,-0.7875 -1.75,-1.75 z M 216.5,295 c 0.99549,-1.1 2.03498,-2 2.30998,-2 0.275,0 -0.31449,0.9 -1.30998,2 -0.99549,1.1 -2.03498,2 -2.30998,2 -0.275,0 0.31449,-0.9 1.30998,-2 z m 28.28352,1.2616 c 2.90594,-0.20265 7.40594,-0.20052 10,0.005 2.59406,0.20525 0.21648,0.37104 -5.28352,0.36844 -5.5,-0.003 -7.62242,-0.17053 -4.71648,-0.37317 z m 70.08892,-3.0116 c -1.24387,-1.58606 -1.2085,-1.62143 0.37756,-0.37756 1.66575,1.30637 2.19548,2.12756 1.37244,2.12756 -0.20765,0 -0.99515,-0.7875 -1.75,-1.75 z M 212,292.62244 c 0,-0.20765 0.7875,-0.99515 1.75,-1.75 1.58606,-1.24387 1.62143,-1.2085 0.37756,0.37756 C 212.82119,292.91575 212,293.44548 212,292.62244 Z m -17,-2 c 0,-0.20765 0.7875,-0.99515 1.75,-1.75 1.58606,-1.24387 1.62143,-1.2085 0.37756,0.37756 C 195.82119,290.91575 195,291.44548 195,290.62244 Z M 282.87244,288.25 c -1.24387,-1.58606 -1.2085,-1.62143 0.37756,-0.37756 1.66575,1.30637 2.19548,2.12756 1.37244,2.12756 -0.20765,0 -0.99515,-0.7875 -1.75,-1.75 z M 312,286.5 c 1.29175,-1.375 2.57363,-2.5 2.84863,-2.5 0.275,0 -0.55688,1.125 -1.84863,2.5 -1.29175,1.375 -2.57363,2.5 -2.84863,2.5 -0.275,0 0.55688,-1.125 1.84863,-2.5 z m -121,1.12244 c 0,-0.20765 0.7875,-0.99515 1.75,-1.75 1.58606,-1.24387 1.62143,-1.2085 0.37756,0.37756 C 191.82119,287.91575 191,288.44548 191,287.62244 Z M 302.87244,282.25 c -1.24387,-1.58606 -1.2085,-1.62143 0.37756,-0.37756 1.66575,1.30637 2.19548,2.12756 1.37244,2.12756 -0.20765,0 -0.99515,-0.7875 -1.75,-1.75 z M 232.5,280 c 0.99549,-1.1 2.03498,-2 2.30998,-2 0.275,0 -0.31449,0.9 -1.30998,2 -0.99549,1.1 -2.03498,2 -2.30998,2 -0.275,0 0.31449,-0.9 1.30998,-2 z m 34.37244,0.25 c -1.24387,-1.58606 -1.2085,-1.62143 0.37756,-0.37756 1.66575,1.30637 2.19548,2.12756 1.37244,2.12756 -0.20765,0 -0.99515,-0.7875 -1.75,-1.75 z m -71.94813,-4 -2.42431,-2.75 2.75,2.42431 c 2.57029,2.26589 3.20859,3.07569 2.42431,3.07569 -0.17912,0 -1.41662,-1.2375 -2.75,-2.75 z M 227,278.62244 c 0,-0.20765 0.7875,-0.99515 1.75,-1.75 1.58606,-1.24387 1.62143,-1.2085 0.37756,0.37756 C 227.82119,278.91575 227,279.44548 227,278.62244 Z M 270.87244,277.25 c -1.24387,-1.58606 -1.2085,-1.62143 0.37756,-0.37756 0.9625,0.75485 1.75,1.54235 1.75,1.75 0,0.82304 -0.82119,0.29331 -2.12756,-1.37244 z m 16.69185,0.45687 c 0.37553,-0.98622 0.93469,-1.54122 1.24258,-1.23333 0.30789,0.30789 6.4e-4,1.11479 -0.68278,1.79313 -0.98762,0.98026 -1.10248,0.8654 -0.5598,-0.5598 z M 210.5,276 c 0.99549,-1.1 2.03498,-2 2.30998,-2 0.275,0 -0.31449,0.9 -1.30998,2 -0.99549,1.1 -2.03498,2 -2.30998,2 -0.275,0 0.31449,-0.9 1.30998,-2 z m -11.06291,-2.25 -2.93709,-3.25 3.25,2.93709 c 3.02946,2.73778 3.70965,3.56291 2.93709,3.56291 -0.1721,0 -1.6346,-1.4625 -3.25,-3.25 z M 205,274.62244 c 0,-0.20765 0.7875,-0.99515 1.75,-1.75 1.58606,-1.24387 1.62143,-1.2085 0.37756,0.37756 C 205.82119,274.91575 205,275.44548 205,274.62244 Z M 254.87244,269.25 c -1.24387,-1.58606 -1.2085,-1.62143 0.37756,-0.37756 0.9625,0.75485 1.75,1.54235 1.75,1.75 0,0.82304 -0.82119,0.29331 -2.12756,-1.37244 z m 65.85877,-1.33016 c 0.35361,-1.3522 0.8069,-1.8055 1.05655,-1.05655 0.24048,0.72144 -0.0382,1.78716 -0.61931,2.36826 -0.74207,0.74207 -0.87221,0.35164 -0.43724,-1.31171 z M 246,267.62244 c 0,-0.20765 0.7875,-0.99515 1.75,-1.75 1.58606,-1.24387 1.62143,-1.2085 0.37756,0.37756 C 246.82119,267.91575 246,268.44548 246,267.62244 Z m -5,-2 c 0,-0.20765 0.7875,-0.99515 1.75,-1.75 1.58606,-1.24387 1.62143,-1.2085 0.37756,0.37756 C 241.82119,265.91575 241,266.44548 241,265.62244 Z M 274.87244,263.25 c -1.24387,-1.58606 -1.2085,-1.62143 0.37756,-0.37756 1.66575,1.30637 2.19548,2.12756 1.37244,2.12756 -0.20765,0 -0.99515,-0.7875 -1.75,-1.75 z M 224,263.62244 c 0,-0.20765 0.7875,-0.99515 1.75,-1.75 1.58606,-1.24387 1.62143,-1.2085 0.37756,0.37756 C 224.82119,263.91575 224,264.44548 224,263.62244 Z M 279.87244,261.25 c -1.24387,-1.58606 -1.2085,-1.62143 0.37756,-0.37756 1.66575,1.30637 2.19548,2.12756 1.37244,2.12756 -0.20765,0 -0.99515,-0.7875 -1.75,-1.75 z M 220.5,260 c 0.99549,-1.1 2.03498,-2 2.30998,-2 0.275,0 -0.31449,0.9 -1.30998,2 -0.99549,1.1 -2.03498,2 -2.30998,2 -0.275,0 0.31449,-0.9 1.30998,-2 z m 145.57895,-1.58333 c 0.048,-1.16495 0.28494,-1.4019 0.60416,-0.60417 0.28887,0.72187 0.25335,1.58438 -0.0789,1.91667 -0.33229,0.33229 -0.56864,-0.25834 -0.52522,-1.3125 z M 139.27236,248 c 0,-2.475 0.19502,-3.4875 0.43337,-2.25 0.23836,1.2375 0.23836,3.2625 0,4.5 -0.23835,1.2375 -0.43337,0.225 -0.43337,-2.25 z m 128.60008,2.25 c -1.24387,-1.58606 -1.2085,-1.62143 0.37756,-0.37756 1.66575,1.30637 2.19548,2.12756 1.37244,2.12756 -0.20765,0 -0.99515,-0.7875 -1.75,-1.75 z m -37,-3 c -1.24387,-1.58606 -1.2085,-1.62143 0.37756,-0.37756 0.9625,0.75485 1.75,1.54235 1.75,1.75 0,0.82304 -0.82119,0.29331 -2.12756,-1.37244 z m 5,-2 c -1.24387,-1.58606 -1.2085,-1.62143 0.37756,-0.37756 0.9625,0.75485 1.75,1.54235 1.75,1.75 0,0.82304 -0.82119,0.29331 -2.12756,-1.37244 z m -57.79349,-1.83333 c 0.048,-1.16495 0.28494,-1.4019 0.60416,-0.60417 0.28887,0.72187 0.25335,1.58437 -0.0789,1.91667 -0.3323,0.33229 -0.56864,-0.25834 -0.52522,-1.3125 z M 252.87244,243.25 c -1.24387,-1.58606 -1.2085,-1.62143 0.37756,-0.37756 0.9625,0.75485 1.75,1.54235 1.75,1.75 0,0.82304 -0.82119,0.29331 -2.12756,-1.37244 z M 334.15789,242 c 0,-1.375 0.22698,-1.9375 0.50439,-1.25 0.27741,0.6875 0.27741,1.8125 0,2.5 -0.27741,0.6875 -0.50439,0.125 -0.50439,-1.25 z M 321,240 c 0,-0.55 0.47656,-1 1.05902,-1 0.58246,0 0.7809,0.45 0.44098,1 -0.33992,0.55 -0.81648,1 -1.05902,1 C 321.19844,241 321,240.55 321,240 Z m -90.92105,-1.58333 c 0.048,-1.16495 0.28494,-1.4019 0.60416,-0.60417 0.28887,0.72187 0.25335,1.58437 -0.0789,1.91667 -0.3323,0.33229 -0.56864,-0.25834 -0.52522,-1.3125 z m 43,-4 c 0.048,-1.16495 0.28494,-1.4019 0.60416,-0.60417 0.28887,0.72187 0.25335,1.58437 -0.0789,1.91667 -0.33229,0.33229 -0.56864,-0.25834 -0.52522,-1.3125 z m 61,0 c 0.048,-1.16495 0.28494,-1.4019 0.60416,-0.60417 0.28887,0.72187 0.25335,1.58437 -0.0789,1.91667 -0.33229,0.33229 -0.56864,-0.25834 -0.52522,-1.3125 z M 192.5,213 c 0.99549,-1.1 2.03498,-2 2.30998,-2 0.275,0 -0.31449,0.9 -1.30998,2 -0.99549,1.1 -2.03498,2 -2.30998,2 -0.275,0 0.31449,-0.9 1.30998,-2 z m -4.5,-2.37756 c 0,-0.20765 0.7875,-0.99515 1.75,-1.75 1.58606,-1.24387 1.62143,-1.2085 0.37756,0.37756 C 188.82119,210.91575 188,211.44548 188,210.62244 Z M 253.40499,200.75 251.5,198.5 l 2.25,1.90499 c 1.2375,1.04774 2.25,2.06024 2.25,2.25 0,0.80025 -0.80479,0.20945 -2.59501,-1.90499 z M 281.75,198.33772 c 0.6875,-0.27741 1.8125,-0.27741 2.5,0 0.6875,0.27741 0.125,0.50439 -1.25,0.50439 -1.375,0 -1.9375,-0.22698 -1.25,-0.50439 z m -2.9375,-13.02083 c 0.72187,-0.28887 1.58438,-0.25335 1.91667,0.0789 0.33229,0.33229 -0.25834,0.56864 -1.3125,0.52522 -1.16495,-0.048 -1.4019,-0.28494 -0.60417,-0.60416 z m 7,0 c 0.72187,-0.28887 1.58438,-0.25335 1.91667,0.0789 0.33229,0.33229 -0.25834,0.56864 -1.3125,0.52522 -1.16495,-0.048 -1.4019,-0.28494 -0.60417,-0.60416 z M 167,176.62244 c 0,-0.20765 0.7875,-0.99515 1.75,-1.75 1.58606,-1.24387 1.62143,-1.2085 0.37756,0.37756 C 167.82119,176.91575 167,177.44548 167,176.62244 Z M 327.87244,172.25 c -1.24387,-1.58606 -1.2085,-1.62143 0.37756,-0.37756 0.9625,0.75485 1.75,1.54235 1.75,1.75 0,0.82304 -0.82119,0.29331 -2.12756,-1.37244 z"
           id="path94" />
        <path
           style="fill:#333333;fill-opacity:1"
           d="m 235.63477,365.86537 c -8.9468,-1.14895 -21.50399,-4.36927 -29.55713,-7.57999 -15.77683,-6.2901 -35.07094,-20.187 -45.71813,-32.92924 -21.5481,-25.78811 -31.20704,-61.08177 -25.81527,-94.32867 10.21112,-62.96414 70.5103,-106.68763 133.12738,-96.5319 72.20864,11.71136 116.13336,84.50934 92.62125,153.50443 -14.36844,42.16348 -52.12457,72.42569 -97.26664,77.96096 -9.71177,1.19084 -17.58812,1.16336 -27.39146,-0.0956 z m 33.48424,-7.33314 c 33.65806,-5.89458 63.51193,-28.19278 79.30321,-59.23248 21.41987,-42.1034 12.91845,-94.2825 -20.73768,-127.28145 -9.97847,-9.78363 -17.53366,-15.21879 -29.18454,-20.99518 -18.48146,-9.16293 -36.47705,-12.46833 -58.85395,-10.81017 -37.45469,2.77543 -72.41068,27.05391 -89.07879,61.86914 -14.50277,30.29245 -14.69876,64.95418 -0.53579,94.75871 15.32955,32.25948 45.38144,55.34243 80.29894,61.67785 9.81197,1.78028 28.66303,1.78688 38.7886,0.0136 z M 231.5,317.40523 c -3.85,-0.85382 -11.40391,-3.61989 -16.78647,-6.14684 l -9.78646,-4.59444 -2.71354,2.17343 c -6.09357,4.8807 -7.73234,5.66026 -11.71249,5.57164 -10.81778,-0.24087 -15.06689,-11.83155 -7.08603,-19.32918 l 2.44866,-2.30039 -6.94891,-8.13972 C 171.36913,275.80101 164.08842,262.29768 161.8553,253 c -1.90483,-7.93085 -1.63103,-24.18416 0.53064,-31.5 7.06307,-23.90381 29.05092,-40.5 53.65738,-40.5 10.52198,0 17.8181,1.66023 26.53016,6.03692 l 7.42794,3.73158 6.29902,-3.3448 c 8.50813,-4.51783 16.4422,-6.42603 26.65966,-6.41183 15.82993,0.022 28.2351,5.19118 39.56297,16.48572 11.44417,11.4105 16.49257,23.92301 16.46215,40.80163 -0.0317,17.59253 -7.16923,34.32931 -20.91908,49.05319 -4.46128,4.77731 -4.50025,4.87792 -2.51802,6.5 6.02778,4.93262 7.32162,12.77209 2.96284,17.95219 -4.56373,5.42369 -10.75286,4.83414 -18.58543,-1.77038 l -4.76273,-4.01599 -7.8314,4.01728 c -13.11083,6.72547 -18.96766,8.16611 -34.8314,8.5677 -10.11053,0.25595 -15.94473,-0.0769 -21,-1.19798 z m 36,-4.56808 c 5.40281,-1.22665 14.97983,-5.08787 20.33762,-8.19963 l 3.33762,-1.93847 -4.89277,-4.89277 -4.89277,-4.89277 -7.76187,3.6861 c -6.7639,3.21216 -8.96801,3.74918 -17.1428,4.17678 -8.60751,0.45023 -9.40583,0.66517 -9.68298,2.60715 -0.38559,2.70179 -3.20837,2.77058 -3.59263,0.0876 -0.23256,-1.62384 -1.48449,-2.25581 -6.27055,-3.16536 -3.28898,-0.62505 -8.84624,-2.47774 -12.34945,-4.11709 l -6.36948,-2.98064 -4.79968,4.87296 c -2.63982,2.68012 -4.60181,5.05499 -4.35997,5.27748 0.24184,0.22249 3.13971,1.74522 6.43971,3.38386 7.62328,3.78539 15.37274,6.32656 21.8872,7.17715 6.98899,0.91256 24.02298,0.30033 30.1128,-1.0823 z m -48.05385,-6.92428 c -0.94095,-1.52249 1.10241,-3.30008 2.96977,-2.58351 0.89841,0.34476 1.3022,1.24162 0.96023,2.13279 -0.68249,1.77855 -2.94872,2.03846 -3.93,0.45072 z M 315,309 c 1.1,-1.1 2,-3.20214 2,-4.67142 0,-2.85151 -0.77122,-3.68186 -18.32398,-19.72903 -8.9587,-8.19027 -9.84072,-8.75657 -11.05406,-7.09723 C 286.19484,279.45403 284,278.79186 284,276.4096 c 0,-0.8098 0.64567,-1.72014 1.43482,-2.02296 0.9558,-0.36678 -4.30172,-5.78145 -15.74791,-16.21862 -9.4505,-8.61741 -19.18548,-17.52844 -21.63329,-19.80228 l -4.45055,-4.13425 1.17456,-4.86575 c 0.64601,-2.67616 1.43801,-5.78343 1.76,-6.90504 0.42171,-1.46899 -0.5742,-3.35672 -3.56108,-6.75 -2.28059,-2.59089 -4.50601,-4.7107 -4.94539,-4.7107 -1.91499,0 -6.32407,14.30392 -7.43438,24.11856 l -0.52249,4.61856 37.56607,34.38144 c 20.66134,18.90979 38.53212,34.92799 39.71286,35.596 C 310.47181,311.47894 312.7323,311.2677 315,309 Z m -54,-49 c 0,-1.50615 0.52215,-2.04609 1.75,-1.80963 0.9625,0.18536 1.75,0.99969 1.75,1.80963 0,0.80994 -0.7875,1.62427 -1.75,1.80963 C 261.52215,262.04609 261,261.50615 261,260 Z m -41.41008,25.91642 c 14.25055,-13.24598 25.91008,-24.38348 25.91008,-24.75 0,-0.36653 -2.0346,-2.54138 -4.52134,-4.83301 l -4.52133,-4.16658 -26.22867,24.46096 C 188.78813,296.62333 184,301.56831 184,303.71564 c 0,3.67035 2.70159,6.28436 6.49491,6.28436 2.77453,0 6.52371,-3.10341 29.09501,-24.08358 z m -0.11699,-9.96022 c -0.35481,-0.5741 -0.0967,-1.70465 0.57366,-2.51234 1.49277,-1.79868 4.13698,-0.0858 3.28698,2.12925 -0.63885,1.66482 -2.9281,1.89198 -3.86064,0.38309 z m 48.58689,18.18421 c 10.63272,-4.09602 10.83452,-3.25508 -4.0704,-16.96195 C 256.7058,270.48031 250.30722,265 249.77034,265 248.61408,265 223,288.93142 223,290.01173 c 0,0.9303 8.63021,4.68059 13.69528,5.95132 6.67368,1.6743 25.06059,0.60581 31.36454,-1.82264 z m -72.15513,-10.51554 3.40469,-3.53928 -6.11356,-6.53541 c -7.55788,-8.0794 -12.67046,-18.28106 -14.24395,-28.42243 -0.62774,-4.04591 -0.93612,-8.4298 -0.68528,-9.74198 0.28214,-1.47595 -0.0164,-2.38577 -0.78282,-2.38577 -0.68138,0 -1.74953,-0.61529 -2.37366,-1.36732 -0.86162,-1.0382 -0.78129,-1.66069 0.33375,-2.58609 0.80769,-0.67032 1.88113,-0.96377 2.38542,-0.6521 0.5043,0.31167 1.89223,-2.10826 3.0843,-5.37762 2.97661,-8.16363 10.30373,-16.01393 18.8937,-20.24276 6.23591,-3.06993 7.30678,-3.27411 17.17169,-3.27411 9.60499,0 11.04343,0.25529 16.52103,2.93208 8.57044,4.18822 15.61266,11.75671 19.01997,20.44137 2.03393,5.18416 2.61569,8.07847 2.2187,11.03828 -0.50734,3.78248 -0.28637,4.21797 3.86715,7.62147 l 4.40524,3.60976 2.93914,-2.32148 c 3.46802,-2.73922 3.76564,-5.77935 1.57695,-16.10834 -4.25913,-20.09996 -19.32723,-35.39036 -39.58004,-40.16398 -25.89588,-6.1037 -52.38107,9.25435 -60.60171,35.14132 -6.48183,20.41142 -0.29141,43.07751 16.90339,61.89136 5.51423,6.03345 5.89195,6.03484 11.6559,0.043 z m -16.56886,-8.19209 c -0.7217,-1.88073 1.04795,-3.93166 2.57704,-2.98663 1.6483,1.01871 1.30343,4.55385 -0.44425,4.55385 -0.84227,0 -1.80202,-0.70525 -2.13279,-1.56722 z m -7.66916,-20.09945 C 170.2901,253.95677 171.07281,252 173,252 c 1.33333,0 2,0.66667 2,2 0,1.92719 -1.95677,2.7099 -3.33333,1.33333 z M 255.5,219 c -0.83704,-1.35436 0.29243,-3 2.05902,-3 0.79254,0 1.44098,0.9 1.44098,2 0,2.07031 -2.41251,2.7596 -3.5,1 z m -70.16417,-19.56722 c -0.83346,-2.17196 1.28244,-4.21451 2.79695,-2.7 C 189.41282,198.01282 188.61983,201 187,201 c -0.58452,0 -1.3334,-0.70525 -1.66417,-1.56722 z m 138.37632,73.57559 c 18.61986,-27.52055 12.83611,-62.35516 -13.21215,-79.57476 -10.5457,-6.97139 -24.88881,-9.69484 -37.25948,-7.07478 -7.61222,1.61223 -19.50796,6.41673 -19.02341,7.68323 0.15559,0.40668 2.1854,2.7927 4.5107,5.30226 l 4.22781,4.56285 4.77219,-2.20359 C 271.68779,199.87504 274.28707,199.5 283,199.5 c 9.59649,0 11.01629,0.2533 16.5,2.94366 11.05619,5.42428 19.85137,17.28403 21.18813,28.57087 0.50312,4.24812 0.86859,4.88499 2.69693,4.69975 1.5197,-0.15397 2.11494,0.34861 2.11494,1.78572 0,1.47799 -0.58726,1.93783 -2.25,1.76179 -1.95229,-0.20669 -2.25,0.22751 -2.25,3.28155 0,4.44221 -3.35698,14.49918 -6.81561,20.41849 -1.4584,2.49599 -5.08827,7.41582 -8.06638,10.93295 l -5.41474,6.39479 4.89836,4.32349 4.89837,4.3235 4.74831,-5.21828 c 2.61157,-2.87005 6.4203,-7.68952 8.46384,-10.70991 z m -5.68493,-4.47558 C 316.64485,266.86715 317.45444,265 319.55902,265 c 1.56113,0 2.00336,3.53439 0.55429,4.42997 -0.48768,0.30141 -1.42642,-0.10232 -2.08609,-0.89718 z m 6.16094,-50.27131 C 324.69017,215.65475 328,215.36403 328,217.92668 328,219.35777 327.35777,220 325.92668,220 c -1.4311,0 -1.96962,-0.53852 -1.73852,-1.73852 z m -104.90349,43.35951 13.78467,-12.91546 -3.53467,-3.23764 C 226.39529,242.59233 226,241.67349 226,237.25162 c 0,-8.76795 1.91241,-16.01145 7.64245,-28.94674 0.93407,-2.10862 -12.91174,-5.64892 -19.68902,-5.03437 -15.27934,1.38548 -28.66117,13.74686 -30.81047,28.46099 -1.81801,12.44606 3.00628,26.44493 13.28848,38.55985 5.00729,5.8998 5.98088,6.62423 7.41627,5.51823 0.90876,-0.70022 7.85539,-7.08508 15.43696,-14.18859 z m 84.01436,8.33796 c 22.03303,-24.34729 16.04833,-57.40653 -11.86107,-65.52001 -4.02266,-1.16942 -7.55851,-1.50221 -11.5396,-1.0861 C 273.67581,204.00322 266,206.65173 266,208.14842 c 0,0.51219 0.90948,2.71398 2.02106,4.89287 2.45765,4.81738 4.59615,13.33254 5.43902,21.6573 0.61753,6.09911 0.56822,6.26433 -3.0723,10.29394 -2.12443,2.35149 -3.31409,4.44837 -2.79384,4.92438 C 286.30348,267.03593 296.42628,276 297.04863,276 c 0.43096,0 3.24364,-2.71847 6.2504,-6.04105 z M 250.98469,232.25 c -0.008,-0.4125 -0.45153,-1.425 -0.98469,-2.25 -0.78387,-1.21296 -0.9723,-1.06944 -0.98469,0.75 -0.008,1.2375 0.43469,2.25 0.98469,2.25 0.55,0 0.99311,-0.3375 0.98469,-0.75 z"
           id="path92" />
      </g>
      <path
         style="fill:#000000"
         d="M 233.52015,365.88531 C 208.08599,362.1815 186.96448,351.58182 167.99105,333 c -11.9338,-11.68748 -17.17631,-18.89417 -23.55298,-32.37739 -8.70542,-18.40728 -12.01722,-35.17227 -11.16292,-56.50888 0.67821,-16.93854 3.63257,-29.05668 10.6814,-43.81278 11.91427,-24.94145 30.96773,-44.10849 55.54345,-55.87455 15.36178,-7.35473 28.2354,-10.46997 46,-11.13138 28.39487,-1.05719 52.24668,6.38244 74.85003,23.34653 60.6935,45.55121 62.0674,137.07862 2.76984,184.52253 -24.73786,19.79274 -58.83715,29.20098 -89.59972,24.72123 z M 267.5,358.52494 c 35.44822,-5.77811 65.71086,-28.38615 81.4966,-60.88292 20.64663,-42.50346 11.32348,-94.45674 -22.73608,-126.69695 -22.13641,-20.95396 -47.05297,-31.00302 -76.64151,-30.91018 -13.23574,0.0415 -23.29853,1.69396 -35.91823,5.89822 -34.17106,11.3841 -61.70344,41.64997 -71.0162,78.06689 -1.82799,7.14823 -2.17193,11.28306 -2.16271,26 0.009,15.05598 0.33368,18.72892 2.32166,26.29946 5.00908,19.07532 13.27381,34.28432 25.97085,47.79228 10.00447,10.64344 18.79506,17.42773 30.18562,23.29629 21.78963,11.22629 44.90036,14.98369 68.5,11.13691 z M 229.00072,316.9268 c -4.1246,-1.07969 -11.20465,-3.79863 -15.73344,-6.04208 l -8.23416,-4.07901 -3.76656,2.95245 c -7.2273,5.66518 -10.90683,6.51346 -16.25552,3.74755 -7.44657,-3.85077 -7.98261,-12.69652 -1.1444,-18.88502 l 2.0714,-1.87459 -5.54828,-6.12305 C 154.69201,258.26314 153.22431,220.35351 176.91993,197 c 11.21873,-11.05676 23.57408,-15.96764 40.22473,-15.98813 10.71045,-0.0132 18.75095,1.98297 27.35534,6.79128 l 5,2.79411 6,-3.24927 c 8.51105,-4.60911 16.22064,-6.35236 27.9601,-6.32217 16.38716,0.0421 29.31809,5.69499 40.64942,17.77023 C 334.70966,210.09208 339,221.40972 339,238.07617 c 0,18.41156 -6.45056,33.91114 -20.18572,48.50277 l -4.78082,5.07893 2.99922,2.87344 c 6.39131,6.12327 5.8018,16.1767 -1.16764,19.91271 -3.15861,1.69319 -4.13939,1.79036 -7.60148,0.75309 -2.18622,-0.65501 -5.96581,-2.94334 -8.39907,-5.08519 l -4.42412,-3.89426 -9.86205,4.84328 c -5.42412,2.66381 -12.92454,5.53983 -16.66759,6.39117 -9.94828,2.26269 -30.2818,1.99505 -39.91001,-0.52531 z m 39.35494,-4.50818 c 3.37938,-0.86975 9.94929,-3.35888 14.59978,-5.5314 l 8.45544,-3.95003 -4.69266,-4.69266 c -4.62821,-4.6282 -4.73747,-4.674 -7.95544,-3.33422 -11.27615,4.69473 -16.58455,6.03914 -23.94323,6.06387 -7.19446,0.0242 -7.70067,0.16819 -8,2.27582 -0.17575,1.2375 -0.99455,2.25 -1.81955,2.25 -0.825,0 -1.6438,-1.0125 -1.81955,-2.25 -0.24361,-1.71525 -0.97825,-2.25 -3.09107,-2.25 -3.48569,0 -10.18345,-2.03263 -16.32637,-4.95472 l -4.73699,-2.2533 -5.07118,4.24583 c -2.78916,2.33521 -4.70751,4.60003 -4.26301,5.03292 1.69438,1.65017 12.09559,6.38797 18.80817,8.56722 8.9013,2.88983 30.05104,3.3041 39.85566,0.78067 z m -49.03276,-7.01954 c -0.85252,-2.22164 1.81066,-3.69307 3.54542,-1.95888 0.75258,0.75233 1.06353,1.86106 0.69099,2.46384 -1.00603,1.62779 -3.53361,1.32652 -4.23641,-0.50496 z m 95.04224,3.52834 c 3.02991,-2.38333 3.34693,-5.51296 0.86262,-8.51583 -0.95027,-1.14862 -7.19504,-7.10349 -13.87728,-13.23304 -8.75816,-8.03379 -12.30837,-10.73067 -12.71861,-9.6616 -0.7409,1.93076 -3.53027,1.91139 -4.27513,-0.0297 -0.31927,-0.83201 -0.0727,-2.12456 0.54788,-2.87234 0.89889,-1.0831 -3.14576,-5.25809 -19.88813,-20.52907 -22.88314,-20.87206 -22.46783,-20.26474 -19.51916,-28.54317 1.28204,-3.59938 1.23849,-4.23407 -0.48149,-7.01706 -1.04007,-1.68286 -3.01087,-4.11179 -4.37958,-5.39762 l -2.48855,-2.33787 -2.0833,4.08361 c -2.78245,5.45404 -5.23493,16.3608 -4.86427,21.63249 0.29769,4.23373 0.56898,4.51102 37.44173,38.26899 20.42802,18.7024 37.97802,34.49027 39,35.08416 2.66841,1.55066 3.75937,1.39944 6.72327,-0.93197 z m -53.37267,-47.4365 c -0.94408,-1.13754 -1.00451,-1.87888 -0.21731,-2.66608 1.51704,-1.51704 4.44197,-0.1883 4.04875,1.83927 -0.44906,2.31549 -2.26985,2.70841 -3.83144,0.82681 z M 197.23728,306.25 c 2.33367,-2.0625 14.20784,-13.04497 26.38703,-24.40549 l 22.14399,-20.65549 -4.28917,-4.2095 c -2.35905,-2.31523 -4.72314,-4.04526 -5.25355,-3.84451 -1.75991,0.66608 -51.05175,46.96962 -51.64406,48.51315 -1.12272,2.92576 -0.5607,5.25301 1.64099,6.79514 3.48879,2.44364 6.43109,1.85776 11.01477,-2.1933 z m 22.12691,-30.74331 c -0.34636,-0.90262 -0.15025,-2.12063 0.43581,-2.70669 1.52361,-1.52361 4.41041,-0.13109 4.01242,1.93549 -0.4433,2.30188 -3.64766,2.85743 -4.44823,0.7712 z m 52.13581,17.15585 6,-2.83127 -6.5,-5.95959 c -3.575,-3.27778 -9.74912,-8.908 -13.72027,-12.5116 l -7.22028,-6.55201 -2.34256,1.84597 c -7.14486,5.63023 -24.58433,22.87852 -23.86222,23.60063 0.46617,0.46617 3.50208,1.95989 6.74646,3.31937 5.49372,2.30201 6.89476,2.45282 20.39887,2.19577 13.54098,-0.25774 14.89684,-0.46326 20.5,-3.10727 z M 192.85958,273.69195 C 183.14685,262.15859 178,249.93695 178,238.40653 c 0,-4.40413 -0.31028,-5.25441 -2.08697,-5.71902 C 173.2293,231.9857 173.7293,228.5 176.5137,228.5 c 1.462,0 2.55986,-1.40823 4.15923,-5.33503 3.18866,-7.82891 7.02222,-12.8366 13.22971,-17.28168 17.22163,-12.33214 41.3442,-8.51512 54.27033,8.58744 4.81099,6.36543 8.49435,17.41385 6.83755,20.50961 -0.64491,1.20503 -1.01669,2.26491 -0.82619,2.35531 0.19051,0.0904 2.24828,1.93957 4.57283,4.10929 l 4.22645,3.94495 3.08619,-2.94495 c 2.92439,-2.79055 3.05305,-3.23329 2.45407,-8.44494 -1.6539,-14.39057 -6.87562,-25.29338 -16.36545,-34.17065 -17.12247,-16.01723 -41.8767,-18.86934 -61.90421,-7.13244 -3.85379,2.25847 -4.13831,2.66735 -2.62569,3.77341 1.01144,0.73958 1.44161,1.90454 1.06534,2.88507 -0.86862,2.2636 -2.77117,2.06497 -3.40411,-0.35539 -0.77345,-2.95766 -1.67278,-2.52799 -6.67322,3.18826 -20.64776,23.60349 -17.6124,56.60202 7.6828,83.52248 l 3.0169,3.21074 4.8,-4.01879 4.80001,-4.01879 z M 179.38,275.54789 C 178.68339,273.73253 179.69521,272 181.45203,272 c 1.51596,0 2.84001,2.71845 1.9922,4.09024 -0.87407,1.41427 -3.44506,1.07118 -4.06423,-0.54235 z m -8.04417,-21.11511 c -0.7217,-1.88073 1.04795,-3.93166 2.57704,-2.98663 1.6483,1.01871 1.30343,4.55385 -0.44425,4.55385 -0.84227,0 -1.80202,-0.70525 -2.13279,-1.56722 z M 256.25,220.29677 C 254.18381,219.53073 254.7516,216 256.94098,216 c 1.06754,0 2.24579,0.49318 2.61833,1.09596 0.85932,1.39042 -1.6489,3.8164 -3.30931,3.20081 z m 60.57768,61.14999 c 10.99866,-12.00311 17.34102,-27.65303 17.40479,-42.94676 0.0643,-15.41782 -4.52993,-26.76653 -15.22522,-37.60957 -10.22263,-10.36386 -21.68125,-15.11157 -36.35715,-15.06403 -8.67813,0.0281 -19.42687,2.7072 -25.34045,6.31604 l -3.19035,1.94695 4.39164,4.58337 4.39165,4.58338 4.2987,-1.72207 c 14.69449,-5.88663 30.81203,-3.01535 42.24848,7.5264 4.90653,4.52268 10.07464,13.61196 11.05319,19.43953 1.08202,6.44369 1.46387,7.27494 3.27706,7.1338 1.05755,-0.0823 1.83826,0.70222 2.02891,2.03886 0.23122,1.62106 -0.27379,2.25577 -1.98917,2.5 -1.96819,0.28023 -2.40701,1.1189 -3.04911,5.82734 -1.0245,7.51251 -7.74167,20.52211 -14.38839,27.86698 l -5.43781,6.00897 4.27778,4.03702 c 2.35277,2.22036 4.5754,4.04827 4.93918,4.06203 0.36377,0.0137 3.36359,-2.92396 6.66627,-6.52824 z m 0.53651,-12.94007 c -0.34636,-0.90262 -0.15025,-2.12063 0.43581,-2.70669 1.52361,-1.52361 4.41041,-0.13109 4.01242,1.93549 -0.4433,2.30188 -3.64766,2.85743 -4.44823,0.7712 z m 7.88581,-48.2243 c -0.6875,-0.24698 -1.25,-1.31156 -1.25,-2.36572 0,-2.27027 3.4986,-2.66568 4.33357,-0.48978 0.64796,1.68856 -1.30296,3.49519 -3.08357,2.8555 z M 218.02117,262.62276 C 225.70953,255.54803 232,249.4479 232,249.0669 c 0,-0.38099 -1.35,-1.9861 -3,-3.5669 -2.74023,-2.62531 -3,-3.44591 -3,-9.47699 0,-7.56532 1.97817,-16.05033 5.41725,-23.23629 l 2.38019,-4.97341 -3.42113,-1.42944 c -10.09875,-4.21953 -19.34427,-3.99825 -29.03925,0.69501 -5.94406,2.87747 -13.75056,11.73763 -16.26646,18.46197 -3.92498,10.49046 -1.92402,24.91756 4.98735,35.95915 3.44881,5.50982 11.92508,14.67232 13.18492,14.25238 0.43971,-0.14657 7.08994,-6.0549 14.7783,-13.12962 z m 84.91252,7.62724 c 10.17689,-11.47535 15.52179,-27.14248 13.12774,-38.48046 -3.61441,-17.11752 -16.40079,-27.97181 -33.12807,-28.12225 -5.39579,-0.0485 -14.57946,2.10294 -16.78618,3.9325 -0.19406,0.16089 0.87006,2.8775 2.36471,6.03692 2.75494,5.82347 5.38957,17.74924 5.45322,24.68427 0.0286,3.11195 -0.61993,4.40088 -3.57732,7.1102 l -3.6122,3.30922 14.8622,13.63286 c 8.17422,7.49808 15.16243,13.63599 15.52937,13.6398 0.36694,0.004 2.96188,-2.58056 5.76653,-5.74306 z m -53.25058,-39.4375 c -0.31922,-0.79773 -0.55618,-0.56078 -0.60416,0.60417 -0.0434,1.05416 0.19292,1.64479 0.52522,1.3125 0.33229,-0.3323 0.36781,-1.1948 0.0789,-1.91667 z"
         id="path88" />
      <path
         style="fill:#ffdd55;stroke-width:0.609756"
         d="m 186.27577,283.81343 c -2.0096,-2.06006 -3.99913,-4.33706 -4.42118,-5.05998 -0.7003,-1.19956 -0.63471,-1.31443 0.75058,-1.31443 1.72273,0 2.5492,-1.98868 1.90053,-4.57317 -0.33689,-1.3423 -0.70897,-1.52439 -3.11488,-1.52439 -2.32578,0 -2.73228,0.18144 -2.73228,1.21952 0,0.67073 -0.1568,1.21951 -0.34844,1.21951 -0.68928,0 -1.93864,-1.61052 -2.38714,-3.07722 -0.2516,-0.82278 -0.79663,-1.90754 -1.21118,-2.41059 -0.41455,-0.50305 -1.13505,-1.8064 -1.60112,-2.89634 -0.46606,-1.08994 -1.04236,-1.98171 -1.28066,-1.98171 -0.2383,0 -0.61401,-0.96339 -0.83491,-2.14088 -0.2209,-1.17748 -0.64492,-2.29124 -0.94226,-2.47501 -0.29735,-0.18377 -0.54063,-1.00391 -0.54063,-1.82253 0,-0.81862 -0.25465,-1.48841 -0.56589,-1.48841 -0.31123,0 -0.75443,-1.50914 -0.98489,-3.35365 -0.23045,-1.84452 -0.66178,-3.35366 -0.95851,-3.35366 -0.29672,0 -0.5395,-1.64634 -0.5395,-3.65854 0,-2.03252 -0.271,-3.65854 -0.60975,-3.65854 -0.34397,0 -0.60976,-1.72764 -0.60976,-3.96341 0,-2.23577 0.26579,-3.96341 0.60976,-3.96341 0.33536,0 0.60975,-1.37196 0.60975,-3.04879 0,-1.67682 0.23617,-3.04878 0.52483,-3.04878 0.28865,0 0.68483,-1.351 0.88039,-3.00222 0.19556,-1.65122 0.6223,-3.50336 0.94831,-4.11585 1.12812,-2.1195 2.52452,-5.56901 2.52452,-6.23627 0,-0.36853 0.24239,-0.67005 0.53864,-0.67005 0.29625,0 0.69987,-0.48018 0.89693,-1.06707 0.41001,-1.22107 1.56765,-3.07229 2.68029,-4.28609 0.4192,-0.45733 0.76219,-1.08636 0.76219,-1.39785 0,-0.31149 1.52499,-2.07919 3.38885,-3.92822 3.07506,-3.05058 3.47723,-3.27351 4.34325,-2.40749 0.63402,0.63403 1.79913,0.89269 3.4709,0.77056 2.4306,-0.17756 2.52299,-0.26207 2.70605,-2.47532 0.13565,-1.63996 -0.0811,-2.39533 -0.76219,-2.6567 -1.21332,-0.4656 -1.23854,-1.45425 -0.0371,-1.45425 0.50305,0 0.91463,-0.2744 0.91463,-0.60976 0,-0.33537 0.43785,-0.60976 0.973,-0.60976 1.06026,0 4.69909,-1.86577 5.0165,-2.57216 0.10825,-0.2409 1.20581,-0.62347 2.43903,-0.85014 1.23321,-0.22668 2.3794,-0.58967 2.54708,-0.80666 0.16769,-0.21699 2.36281,-0.8669 4.87805,-1.44425 5.15064,-1.18229 15.9352,-1.38221 19.81707,-0.36738 1.34147,0.3507 3.125,0.78076 3.96342,0.95569 0.83841,0.17493 2.38903,0.70462 3.44581,1.17709 1.05678,0.47247 2.49733,0.85903 3.20122,0.85903 0.70389,0 1.2798,0.27439 1.2798,0.60976 0,0.33536 0.41158,0.60975 0.91463,0.60975 0.50305,0 0.91464,0.25259 0.91464,0.56131 0,0.30872 0.76987,0.7304 1.71083,0.93707 0.94095,0.20667 2.09909,0.91445 2.57363,1.57284 0.47454,0.65839 1.21382,1.19708 1.64283,1.19708 0.42901,0 1.8505,1.07047 3.15885,2.37883 1.30836,1.30835 2.94066,2.55714 3.62735,2.77509 0.68668,0.21794 1.40926,0.90271 1.60571,1.5217 0.19646,0.61899 1.30806,2.13363 2.47022,3.36588 1.16216,1.23225 2.11302,2.4953 2.11302,2.80679 0,0.31149 0.26916,0.56634 0.59814,0.56634 0.32897,0 0.7703,0.68598 0.98073,1.52439 0.21043,0.83842 0.62724,1.52439 0.92625,1.52439 0.29901,0 0.54366,0.54878 0.54366,1.21951 0,0.67074 0.27114,1.21952 0.60254,1.21952 0.33141,0 0.77807,1.09756 0.99257,2.43902 0.21451,1.34146 0.6169,2.43903 0.89422,2.43903 0.2773,0 0.66881,1.02896 0.87001,2.28658 0.2012,1.25762 0.62522,2.76305 0.94226,3.34539 0.31705,0.58233 0.57644,2.02288 0.57644,3.20121 0,1.17834 0.27439,2.14242 0.60976,2.14242 0.34951,0 0.60976,1.85609 0.60976,4.34874 0,4.19661 -0.0762,4.42057 -2.17756,6.40244 -1.19766,1.12954 -2.3276,2.0537 -2.51097,2.0537 -0.18338,0 -1.23152,-0.75457 -2.3292,-1.67683 -1.09769,-0.92225 -2.69897,-2.22561 -3.5584,-2.89634 -1.54401,-1.205 -2.19062,-3.35366 -1.00924,-3.35366 0.33537,0 0.60976,-1.50914 0.60976,-3.35365 0,-1.84452 -0.27439,-3.35366 -0.60976,-3.35366 -0.33536,0 -0.60976,-0.80698 -0.60976,-1.79329 0,-0.9863 -0.25328,-1.94981 -0.56284,-2.14113 -0.30956,-0.19133 -0.74295,-1.16789 -0.96308,-2.17014 -0.22013,-1.00225 -0.65283,-1.82227 -0.96155,-1.82227 -0.30871,0 -0.56131,-0.68598 -0.56131,-1.52439 0,-0.83842 -0.26916,-1.52439 -0.59814,-1.52439 -0.32897,0 -0.7703,-0.68598 -0.98073,-1.52439 -0.21043,-0.83842 -0.56808,-1.52439 -0.79478,-1.52439 -0.22671,0 -0.93557,-0.88602 -1.57526,-1.96892 -1.37864,-2.33386 -6.36991,-7.17743 -7.39631,-7.17743 -0.39568,0 -0.87736,-0.41158 -1.0704,-0.91463 -0.19304,-0.50305 -0.90837,-0.91463 -1.58963,-0.91463 -0.68126,0 -1.23865,-0.27439 -1.23865,-0.60976 0,-0.33537 -0.41158,-0.60976 -0.91463,-0.60976 -0.50305,0 -0.91464,-0.27439 -0.91464,-0.60975 0,-0.33537 -0.34298,-0.61145 -0.76219,-0.61351 -0.41921,-0.002 -1.58537,-0.4372 -2.59146,-0.96695 -1.0061,-0.52976 -3.27786,-1.11607 -5.04837,-1.30291 -1.7705,-0.18684 -3.36444,-0.57489 -3.54208,-0.86232 -0.42213,-0.68301 -13.66565,-0.68273 -13.66565,2.9e-4 0,0.28759 -1.71494,0.70187 -3.81098,0.92061 -2.09603,0.21875 -3.90244,0.66942 -4.01423,1.0015 -0.11178,0.33208 -0.61823,0.60378 -1.12543,0.60378 -1.01591,0 -4.28104,1.69982 -5.56346,2.89634 -0.4493,0.4192 -1.05596,0.76219 -1.34813,0.76219 -0.29217,0 -2.68378,2.13815 -5.31469,4.75144 -4.29661,4.26783 -6.87186,7.94882 -6.87186,9.82242 0,0.36853 -0.20741,0.67005 -0.46091,0.67005 -0.65394,0 -1.9763,3.17486 -2.39372,5.74712 -0.33482,2.06325 -0.47976,2.1797 -2.71296,2.1797 h -2.35924 v 3.04878 c 0,2.95026 0.0566,3.04879 1.74977,3.04879 h 1.74978 l 0.0675,7.12126 c 0.0372,3.9167 0.30512,7.27797 0.59549,7.46951 0.29036,0.19154 0.70125,1.6456 0.91309,3.23126 0.34708,2.59804 1.3273,5.13968 2.29796,5.95845 0.19879,0.16769 0.54228,1.2335 0.76333,2.36849 0.22104,1.13499 0.9318,2.5232 1.57946,3.08491 0.64766,0.56171 1.35529,1.7294 1.57251,2.59487 0.21722,0.86545 1.05875,2.15073 1.87008,2.85617 0.81132,0.70544 1.47513,1.60058 1.47513,1.98919 0,0.38861 2.06679,2.73351 4.59286,5.21089 l 4.59286,4.50432 -3.83538,3.81655 -3.83538,3.81655 z m -11.04299,-27.28287 c 0.78597,-0.57471 1.02261,-1.43677 0.87874,-3.20122 -0.18838,-2.31036 -0.29597,-2.4229 -2.48984,-2.60433 -3.73657,-0.30902 -5.40805,2.62249 -3.05934,5.36558 1.20246,1.40436 3.10628,1.58371 4.67044,0.43997 z m 85.02019,-38.17744 c 0.20985,-2.93298 -0.39887,-3.69422 -2.96638,-3.70964 -2.13768,-0.0128 -3.0183,1.05779 -3.0183,3.66953 0,2.82879 0.33962,3.1249 3.33154,2.90471 2.44125,-0.17967 2.4627,-0.20283 2.65314,-2.8646 z"
         id="path234" />
      <path
         style="fill:#ffdd55;stroke-width:0.609756"
         d="m 307.86003,284.45771 c -1.13704,-1.17021 -2.34935,-2.13058 -2.69403,-2.13414 -0.34468,-0.004 -1.10295,-0.56274 -1.68506,-1.2426 -1.02296,-1.19472 -0.97646,-1.31403 1.38887,-3.56412 1.346,-1.28042 2.44726,-2.50707 2.44726,-2.7259 0,-0.21883 0.96037,-1.41605 2.13415,-2.66047 1.17378,-1.24443 2.13889,-2.54842 2.14468,-2.89776 0.006,-0.34934 0.7074,-1.29638 1.55912,-2.10454 0.85172,-0.80816 1.70445,-2.2487 1.89495,-3.20122 0.19051,-0.95251 0.58646,-1.73184 0.87991,-1.73184 0.29344,0 0.53353,-0.41158 0.53353,-0.91463 0,-0.50305 0.2526,-0.91464 0.56131,-0.91464 0.30872,0 0.74211,-0.82317 0.96308,-1.82926 0.22098,-1.0061 0.65437,-1.82927 0.96309,-1.82927 0.30871,0 0.56131,-0.6311 0.56131,-1.40244 0,-0.77134 0.28168,-1.68412 0.62596,-2.0284 0.34427,-0.34428 0.79408,-2.0455 0.99957,-3.78049 0.20548,-1.73499 0.60977,-3.15453 0.89842,-3.15453 0.28865,0 0.52483,-1.09756 0.52483,-2.43902 0,-2.03252 0.20325,-2.43903 1.21951,-2.43903 1.7735,0 3.65853,-2.16559 3.65853,-4.20305 0,-1.86158 -0.87346,-2.50426 -3.40353,-2.50426 -1.31008,0 -1.47451,-0.26798 -1.47451,-2.40304 0,-1.32167 -0.23607,-2.54894 -0.5246,-2.72726 -0.28853,-0.17832 -0.69404,-1.56046 -0.90114,-3.07143 -0.34434,-2.51222 -1.35369,-5.05794 -2.30864,-5.82266 -0.20939,-0.16769 -0.57418,-1.19665 -0.81064,-2.28659 -0.23646,-1.08994 -0.68252,-1.98171 -0.99124,-1.98171 -0.30871,0 -0.56131,-0.31152 -0.56131,-0.69227 0,-0.38075 -0.68597,-1.32801 -1.52439,-2.10503 -0.83841,-0.77702 -1.52439,-1.71424 -1.52439,-2.08272 0,-0.75982 -4.29607,-4.8687 -5.09517,-4.87316 -0.2871,-0.002 -1.06158,-0.68889 -1.72108,-1.5273 -0.6595,-0.83842 -1.59076,-1.52439 -2.06947,-1.52439 -0.4787,0 -0.87037,-0.27439 -0.87037,-0.60976 0,-0.33537 -0.51943,-0.60976 -1.15428,-0.60976 -0.63485,0 -1.31221,-0.41158 -1.50525,-0.91463 -0.19304,-0.50305 -1.04557,-0.91463 -1.89451,-0.91463 -0.84894,0 -1.54352,-0.26077 -1.54352,-0.57948 0,-0.31871 -1.64635,-0.76574 -3.65854,-0.9934 -2.0122,-0.22765 -3.65854,-0.65286 -3.65854,-0.94491 0,-0.29205 -3.29268,-0.53099 -7.31707,-0.53099 -4.02439,0 -7.31707,0.2353 -7.31707,0.52289 0,0.28759 -1.69959,0.70053 -3.77686,0.91765 -2.07727,0.21712 -3.9294,0.62912 -4.11585,0.91557 -0.18645,0.28644 -1.41273,0.90246 -2.72507,1.36893 -1.94437,0.69112 -2.43549,0.70105 -2.65305,0.0536 -0.14684,-0.43699 -1.47403,-1.98449 -2.9493,-3.43889 -1.47527,-1.4544 -2.67971,-3.0176 -2.67654,-3.47377 0.003,-0.45617 1.23794,-1.37108 2.74391,-2.03313 1.50596,-0.66205 2.73812,-1.39981 2.73812,-1.63947 0,-0.23965 1.23476,-0.6209 2.7439,-0.84721 1.50915,-0.22631 2.74391,-0.65471 2.74391,-0.95199 0,-0.29729 0.53539,-0.54053 1.18976,-0.54053 0.65437,0 2.76994,-0.41158 4.70128,-0.91463 4.51485,-1.17597 14.19086,-1.17597 18.70572,0 1.93133,0.50305 4.18411,0.91463 5.00616,0.91463 0.82205,0 1.49464,0.27115 1.49464,0.60255 0,0.33141 1.09756,0.77806 2.43902,0.99257 1.34147,0.21451 2.43903,0.62934 2.43903,0.92184 0,0.2925 0.41158,0.53182 0.91463,0.53182 0.50305,0 0.91463,0.25259 0.91463,0.56131 0,0.30872 0.89176,0.75717 1.98168,0.99656 1.08993,0.23939 2.34024,0.94717 2.77848,1.57284 0.43824,0.62567 1.12423,1.13823 1.52442,1.13901 0.76144,0.001 11.1428,10.42025 12.46688,12.51181 0.42001,0.66345 1.03059,1.82366 1.35686,2.57823 0.32626,0.75457 0.87439,1.37195 1.21806,1.37195 0.34366,0 0.62484,0.54878 0.62484,1.21951 0,0.86258 -0.4065,1.21952 -1.38887,1.21952 -0.76389,0 -1.86145,0.55191 -2.43903,1.22648 -1.14187,1.33361 -1.42142,3.65157 -0.44039,3.65157 0.33537,0 0.60976,0.41158 0.60976,0.91463 0,0.66405 0.68385,0.91463 2.49611,0.91463 1.9786,0 2.56185,-0.25141 2.81322,-1.21265 0.41396,-1.58297 1.39798,-0.95443 1.39798,0.89295 0,0.79067 0.27171,1.52905 0.60378,1.64084 0.33208,0.11179 0.78276,1.91819 1.0015,4.01423 0.21874,2.09604 0.63302,3.81097 0.92062,3.81097 0.28759,0 0.52289,3.42988 0.52289,7.62196 0,4.19207 -0.2365,7.62195 -0.52556,7.62195 -0.28905,0 -0.71023,1.80263 -0.93596,4.00584 -0.22572,2.20321 -0.6752,4.53553 -0.99884,5.18293 -0.32363,0.64739 -0.84405,1.69208 -1.15647,2.32153 -0.31242,0.62944 -0.75455,2.13859 -0.98249,3.35365 -0.22795,1.21507 -0.58971,2.21182 -0.80391,2.21499 -0.2142,0.003 -0.93113,1.23794 -1.59319,2.7439 -0.66205,1.50597 -1.41663,2.73813 -1.67683,2.73813 -0.2602,0 -0.4731,0.55739 -0.4731,1.23865 0,0.68126 -0.41158,1.39659 -0.91463,1.58963 -0.50305,0.19304 -0.91463,0.74631 -0.91463,1.22949 0,0.48318 -0.68598,1.51425 -1.52439,2.29127 -0.83842,0.77702 -1.52439,1.58946 -1.52439,1.80543 0,0.48656 -2.8789,3.82036 -4.72561,5.47233 -0.75458,0.675 -1.37196,1.52839 -1.37196,1.89643 0,0.74808 -2.16783,2.76946 -2.97011,2.76946 -0.28443,0 -1.44745,-0.95745 -2.58449,-2.12766 z m 14.56673,-16.77478 c 0.15073,-2.42331 -0.01,-2.82625 -1.37195,-3.44873 -1.16713,-0.53327 -1.91251,-0.53327 -3.06225,0 -1.25504,0.5821 -1.52046,1.13835 -1.52439,3.19466 -0.002,1.36941 0.19108,2.68568 0.43044,2.92504 0.23936,0.23935 1.54271,0.35368 2.89634,0.25406 2.45451,-0.18064 2.46161,-0.18853 2.63181,-2.92503 z"
         id="path236" />
      <path
         style="fill:#ffdd55;stroke-width:0.609756"
         d="m 308.53659,309.14634 c 0,-0.33536 -0.28597,-0.60975 -0.6355,-0.60975 -0.76716,0 -1.30432,-0.45141 -6.34895,-5.33537 -2.16499,-2.09604 -4.11044,-3.81098 -4.32322,-3.81098 -0.21279,0 -2.26171,-1.85213 -4.55318,-4.11585 -2.29146,-2.26372 -5.00544,-4.80183 -6.03107,-5.64024 -1.02562,-0.83842 -4.34164,-3.92531 -7.36892,-6.85976 -3.02728,-2.93445 -5.70498,-5.33537 -5.95044,-5.33537 -0.45535,0 -0.99427,-0.50226 -6.85812,-6.39163 -1.84244,-1.85045 -3.54503,-3.36446 -3.78355,-3.36446 -0.23851,0 -2.95785,-2.46952 -6.04297,-5.48781 -3.08513,-3.01829 -5.81052,-5.4878 -6.05643,-5.4878 -0.24591,0 -2.91898,-2.46952 -5.94014,-5.48781 -3.02117,-3.01829 -5.93312,-5.4878 -6.47101,-5.4878 -0.53788,0 -0.97797,-0.26162 -0.97797,-0.58137 0,-0.31975 -1.25226,-1.81591 -2.78281,-3.32481 l -2.78281,-2.74344 0.42733,-5.82153 c 0.23503,-3.20185 0.66412,-5.82154 0.95354,-5.82154 0.28942,0 0.52622,-0.96036 0.52622,-2.13414 0,-1.17378 0.25757,-2.13415 0.57239,-2.13415 0.31482,0 0.75756,-1.23475 0.98387,-2.7439 0.22631,-1.50915 0.62417,-2.7439 0.88413,-2.7439 0.25997,0 0.65283,-0.96037 0.87303,-2.13415 0.23437,-1.24929 0.75942,-2.13415 1.26635,-2.13415 1.10481,0 4.00536,2.82521 5.50236,5.35943 0.63603,1.0767 1.37164,1.95765 1.6347,1.95765 0.26306,0 0.47829,0.68597 0.47829,1.52439 0,0.83841 -0.27439,1.52439 -0.60976,1.52439 -0.33536,0 -0.60975,0.68597 -0.60975,1.52439 0,0.83841 -0.2744,1.52439 -0.60976,1.52439 -0.35526,0 -0.60976,2.01882 -0.60976,4.83696 0,4.30143 0.13502,4.87981 1.21952,5.22401 0.67073,0.21289 1.21951,0.62336 1.21951,0.91217 0,0.5602 0.66409,1.23773 3.58841,3.661 1.01177,0.83842 4.08109,3.65092 6.82072,6.25 2.73963,2.59909 5.19887,4.72561 5.46498,4.72561 0.26611,0 2.94162,2.46952 5.94558,5.48781 3.00396,3.01829 5.66295,5.4878 5.90887,5.4878 0.24593,0 2.00055,1.57775 3.89918,3.5061 1.89862,1.92836 4.36063,4.26067 5.47113,5.18293 1.1105,0.92225 1.72364,1.67683 1.36254,1.67683 -0.37273,0 -0.65653,1.19992 -0.65653,2.77586 v 2.77587 l 3.57017,-0.12884 c 3.54815,-0.12804 3.58948,-0.10943 6.69931,3.01682 1.72103,1.73011 3.3797,3.14565 3.68593,3.14565 0.30623,0 2.90003,2.26372 5.76401,5.03049 2.86397,2.76677 6.5839,6.26525 8.26651,7.77439 3.26336,2.92694 4.16049,5.14922 3.42697,8.48892 -0.22673,1.03231 -0.80203,1.87694 -1.27843,1.87694 -0.4764,0 -0.86618,0.27439 -0.86618,0.60975 0,0.33537 -0.96037,0.60976 -2.13415,0.60976 -1.17378,0 -2.13414,-0.27439 -2.13414,-0.60976 z m -43.41326,-48.93293 -0.18431,-3.20121 H 262.5 c -2.23268,0 -2.45595,0.14809 -2.63907,1.7505 -0.11003,0.96278 -0.0362,2.40333 0.16405,3.20122 0.30816,1.2278 0.74199,1.45071 2.82338,1.45071 h 2.45927 z"
         id="path238" />
      <path
         style="fill:#ffdd55;stroke-width:0.609756"
         d="m 236.12805,313.00642 c -1.42531,-0.14941 -2.59146,-0.53027 -2.59146,-0.84636 0,-0.31608 -0.96037,-0.57469 -2.13415,-0.57469 -1.17378,0 -2.13415,-0.24324 -2.13415,-0.54053 0,-0.29728 -1.22836,-0.72472 -2.72969,-0.94986 -2.93136,-0.43959 -3.91513,-1.25503 -2.82693,-2.34323 0.90406,-0.90407 0.86765,-4.87975 -0.0531,-5.80053 -1.89113,-1.89113 -5.36586,-0.0922 -5.36586,2.77803 v 1.8509 l -3.32659,-1.61324 c -1.82963,-0.88729 -3.33878,-1.99147 -3.35366,-2.45373 -0.0443,-1.3747 6.79402,-7.48252 7.87469,-7.03353 0.51684,0.21473 1.41989,0.52848 2.00678,0.69723 0.58689,0.16875 1.06708,0.50464 1.06708,0.74642 0,0.24178 1.57774,0.96318 3.50609,1.60311 1.92836,0.63993 3.6773,1.3993 3.88655,1.68747 0.20924,0.28818 2.19857,0.66991 4.42073,0.84828 2.22216,0.17837 4.04028,0.56114 4.04028,0.85059 0,0.28945 0.68598,0.52627 1.52439,0.52627 1.13541,0 1.52439,0.3223 1.52439,1.26307 0,1.86909 1.467,3.00523 3.8804,3.00523 1.89019,0 2.22775,-0.24757 2.90995,-2.13415 l 0.77171,-2.13415 h 6.27995 c 3.45397,0 6.27995,-0.2353 6.27995,-0.52289 0,-0.28759 1.71493,-0.70187 3.81097,-0.92061 2.09604,-0.21875 3.90244,-0.66942 4.01423,-1.0015 0.11179,-0.33208 0.75543,-0.60378 1.43031,-0.60378 1.12667,0 4.6597,-1.64057 5.37863,-2.49757 0.16769,-0.19989 1.1253,-0.56463 2.12804,-0.81054 1.00274,-0.24591 1.9944,-0.72417 2.20368,-1.06279 0.20928,-0.33863 2.06725,1.02457 4.12883,3.02934 3.96107,3.85191 4.32802,5.28464 1.53317,5.9861 -0.80143,0.20115 -1.45713,0.61036 -1.45713,0.90937 0,0.29901 -0.54878,0.54365 -1.21951,0.54365 -0.67074,0 -1.21952,0.24465 -1.21952,0.54366 0,0.29901 -0.75457,0.72594 -1.67683,0.94874 -2.33242,0.56347 -5.03048,1.77441 -5.03048,2.25777 0,0.22203 -1.37196,0.59238 -3.04878,0.82301 -1.67683,0.23062 -3.04878,0.66795 -3.04878,0.97185 0,0.30389 -0.80031,0.55254 -1.77846,0.55254 -0.97815,0 -1.88603,0.32271 -2.01751,0.71715 -0.24379,0.73137 -23.94689,1.29527 -29.58818,0.7039 z"
         id="path242" />
      <path
         style="fill:#00ffff;stroke-width:0.609756"
         d="m 190.29204,309.29878 c -0.0265,-0.41921 -0.59692,-0.76219 -1.26765,-0.76219 -1.90015,0 -3.90155,-2.39242 -3.83928,-4.58935 0.044,-1.55124 0.9369,-2.77484 4.69769,-6.43737 4.86342,-4.73633 5.22205,-5.09025 7.66535,-7.56451 0.83136,-0.8419 1.73502,-1.53073 2.00812,-1.53073 0.2731,0 3.36024,-2.88109 6.86031,-6.40243 3.50006,-3.52135 6.54308,-6.40244 6.76225,-6.40244 0.79032,0 13.04068,-12.03134 13.04068,-12.80753 0,-0.28871 0.60094,-0.71566 1.33542,-0.94877 0.73447,-0.23312 2.95674,-2.03514 4.93837,-4.00451 3.8439,-3.82011 4.99924,-4.30581 5.61646,-2.36115 0.21288,0.67074 0.62185,1.21952 0.90882,1.21952 0.28697,0 1.34493,0.82317 2.35103,1.82927 1.00609,1.00609 2.12476,1.82926 2.48592,1.82926 0.36117,0 0.65667,0.15831 0.65667,0.35179 0,0.48948 -3.4735,3.91651 -3.96962,3.91651 -0.32927,0 -5.35114,4.6439 -7.92063,7.3245 -0.33536,0.34987 -0.96562,0.97151 -1.40056,1.38142 -0.43494,0.40991 -1.78237,1.77426 -2.99429,3.03188 -1.21191,1.25762 -2.43639,2.28659 -2.72106,2.28659 -0.28466,0 -3.41267,2.88109 -6.95112,6.40244 -3.53846,3.52134 -6.62941,6.40243 -6.86879,6.40243 -0.23937,0 -3.64978,3.15549 -7.57867,7.0122 -3.92889,3.85671 -7.29549,7.01219 -7.48133,7.01219 -0.18584,0 -1.07768,0.68598 -1.98188,1.5244 -0.90419,0.83841 -2.1041,1.52439 -2.66647,1.52439 -0.56237,0 -1.16089,0.34298 -1.33005,0.76219 -0.24604,0.60976 -0.31718,0.60976 -0.35569,0 z m 33.97917,-34.7561 -0.18584,-2.89634 h -2.74391 -2.7439 l -0.18585,2.89634 -0.18585,2.89634 h 3.1156 3.1156 z"
         id="path244" />
      <path
         style="fill:#00ffff;stroke-width:0.609756"
         d="m 244.5122,359.14634 c 0,-0.3523 -1.9309,-0.60975 -4.57318,-0.60975 -2.51524,0 -4.57317,-0.23391 -4.57317,-0.5198 0,-0.28589 -2.40091,-0.70373 -5.33536,-0.92852 -2.93445,-0.22479 -5.42683,-0.67686 -5.53862,-1.00459 -0.11179,-0.32773 -0.98736,-0.59588 -1.94572,-0.59588 -0.95836,0 -1.90225,-0.25853 -2.09755,-0.57452 -0.19529,-0.31599 -1.58344,-0.75873 -3.08476,-0.98387 -1.50133,-0.22514 -2.72969,-0.65257 -2.72969,-0.94986 0,-0.29729 -0.66978,-0.54053 -1.48841,-0.54053 -0.81862,0 -1.63876,-0.24328 -1.82253,-0.54063 -0.18377,-0.29735 -1.29753,-0.72137 -2.47501,-0.94226 -1.17749,-0.2209 -2.14088,-0.63305 -2.14088,-0.9159 0,-0.28285 -0.96037,-0.69443 -2.13415,-0.91463 -1.17378,-0.2202 -2.13415,-0.66233 -2.13415,-0.9825 0,-0.32017 -0.41158,-0.58212 -0.91463,-0.58212 -0.50305,0 -0.91463,-0.26196 -0.91463,-0.58213 0,-0.32017 -0.96037,-0.7623 -2.13415,-0.9825 -1.17378,-0.2202 -2.13415,-0.64422 -2.13415,-0.94226 0,-0.29804 -0.41158,-0.54189 -0.91463,-0.54189 -0.50305,0 -0.91463,-0.26917 -0.91463,-0.59815 0,-0.32897 -0.68598,-0.7703 -1.5244,-0.98073 -0.83841,-0.21043 -1.52439,-0.58403 -1.52439,-0.83023 0,-0.2462 -0.96036,-0.96483 -2.13414,-1.59695 -1.17378,-0.63212 -2.13415,-1.36131 -2.13415,-1.62041 0,-0.2591 -0.31328,-0.4711 -0.69618,-0.4711 -0.3829,0 -1.48285,-0.82317 -2.44433,-1.82926 -0.96148,-1.0061 -2.01643,-1.82927 -2.34434,-1.82927 -0.3279,0 -2.35816,-1.71494 -4.51169,-3.81098 -4.60744,-4.48444 -7.76002,-7.16463 -8.42742,-7.16463 -0.26316,0 -0.47848,-0.4005 -0.47848,-0.89 0,-0.4895 -1.09756,-2.00973 -2.43902,-3.37829 -1.34146,-1.36857 -2.43903,-2.68581 -2.43903,-2.92721 0,-0.2414 -0.65208,-1.14215 -1.44907,-2.00167 -0.79699,-0.85953 -1.63865,-2.16008 -1.87036,-2.89012 -0.2317,-0.73004 -0.67718,-1.32735 -0.98995,-1.32735 -0.31276,0 -0.56866,-0.41158 -0.56866,-0.91463 0,-0.50305 -0.26917,-0.91463 -0.59814,-0.91463 -0.32898,0 -0.77031,-0.68598 -0.98074,-1.52439 -0.21043,-0.83842 -0.62724,-1.5244 -0.92625,-1.5244 -0.29901,0 -0.54366,-0.41158 -0.54366,-0.91463 0,-0.50305 -0.27439,-0.91463 -0.60975,-0.91463 -0.33537,0 -0.60976,-0.30152 -0.60976,-0.67005 0,-0.96142 -1.94638,-4.97746 -2.8732,-5.92839 -0.43194,-0.44315 -0.78533,-1.28005 -0.78533,-1.85975 0,-0.5797 -0.23607,-1.31468 -0.52459,-1.63328 -0.28851,-0.31859 -1.02869,-2.01981 -1.64484,-3.78048 -0.61614,-1.76068 -1.3147,-3.20122 -1.55235,-3.20122 -0.23764,0 -0.62077,-1.37196 -0.85139,-3.04878 -0.23063,-1.67683 -0.66796,-3.04879 -0.97186,-3.04879 -0.30389,0 -0.55253,-0.8003 -0.55253,-1.77845 0,-0.97815 -0.26336,-1.86992 -0.58525,-1.98171 -0.32188,-0.11179 -0.77292,-2.46697 -1.0023,-5.23374 -0.22938,-2.76677 -0.652,-5.03049 -0.93915,-5.03049 -0.28715,0 -0.52209,-1.90453 -0.52209,-4.2323 0,-2.32777 -0.27439,-4.40189 -0.60975,-4.60916 -0.81789,-0.50548 -0.81789,-16.15854 0,-16.15854 0.34339,0 0.60975,-1.71564 0.60975,-3.92742 0,-2.16009 0.23844,-4.07479 0.52986,-4.2549 0.29142,-0.18011 0.72186,-2.52861 0.95654,-5.21891 0.23467,-2.6903 0.68222,-4.89145 0.99453,-4.89145 0.31232,0 0.56786,-0.82317 0.56786,-1.82927 0,-1.00609 0.24864,-1.82926 0.55253,-1.82926 0.3039,0 0.74123,-1.37196 0.97186,-3.04879 0.23062,-1.67682 0.61375,-3.04878 0.85139,-3.04878 0.23765,0 0.93852,-1.44054 1.5575,-3.20122 0.61898,-1.76067 1.33461,-3.47561 1.59028,-3.81097 0.25568,-0.33537 0.65715,-1.63872 0.89217,-2.89634 0.23502,-1.25762 0.67116,-2.28659 0.9692,-2.28659 0.29804,0 0.54189,-0.41158 0.54189,-0.91463 0,-0.50305 0.24465,-0.91464 0.54366,-0.91464 0.29901,0 0.71582,-0.68597 0.92625,-1.52439 0.21043,-0.83841 0.65176,-1.52439 0.98074,-1.52439 0.32897,0 0.59813,-0.41158 0.59813,-0.91463 0,-0.50305 0.2744,-0.91463 0.60976,-0.91463 0.33537,0 0.60976,-0.39199 0.60976,-0.87108 0,-0.4791 0.34298,-1.24526 0.76219,-1.70259 0.89414,-0.97544 2.11956,-2.84022 2.71639,-4.13365 0.23212,-0.50305 1.05354,-1.59781 1.82538,-2.4328 0.77185,-0.83498 1.40335,-1.71567 1.40335,-1.95707 0,-0.2414 1.09757,-1.55864 2.43903,-2.92721 1.34146,-1.36856 2.43902,-2.88879 2.43902,-3.37829 0,-0.4895 0.2565,-0.89 0.56999,-0.89 0.7432,0 7.35684,-6.61364 7.35684,-7.35684 0,-0.31349 0.45407,-0.56999 1.00905,-0.56999 0.55497,0 2.05313,-1.09756 3.32923,-2.43902 1.27611,-1.34146 2.53978,-2.43903 2.80816,-2.43903 0.26839,0 1.19122,-0.65208 2.05074,-1.44907 0.85951,-0.79699 2.16006,-1.63865 2.89011,-1.87036 0.73004,-0.2317 1.32735,-0.67718 1.32735,-0.98995 0,-0.31276 0.41158,-0.56866 0.91463,-0.56866 0.50305,0 0.91463,-0.26917 0.91463,-0.59814 0,-0.32898 0.68598,-0.77031 1.52439,-0.98074 0.83842,-0.21043 1.5244,-0.62724 1.5244,-0.92625 0,-0.29901 0.41158,-0.54366 0.91463,-0.54366 0.50305,0 0.91463,-0.25258 0.91463,-0.5613 0,-0.30872 0.82283,-0.74203 1.82851,-0.96292 1.00568,-0.22088 2.17185,-0.8918 2.59149,-1.49091 0.41964,-0.59912 1.72334,-1.29506 2.8971,-1.54652 1.17377,-0.25147 2.40851,-0.65927 2.74388,-0.90623 0.33536,-0.24697 2.0503,-0.95546 3.81097,-1.57444 1.76068,-0.61898 3.20122,-1.31985 3.20122,-1.5575 0,-0.23764 1.37165,-0.62073 3.0481,-0.8513 1.67646,-0.23057 3.2018,-0.66791 3.38965,-0.97185 0.18785,-0.30395 0.98846,-0.55263 1.77913,-0.55263 0.79068,0 1.52906,-0.26336 1.64085,-0.58525 0.11179,-0.32188 2.46697,-0.77292 5.23374,-1.0023 2.76677,-0.22938 5.03049,-0.652 5.03049,-0.93915 0,-0.28715 2.46951,-0.52209 5.4878,-0.52209 3.25203,0 5.48781,-0.24841 5.48781,-0.60975 0,-0.36134 2.23577,-0.60976 5.4878,-0.60976 3.25203,0 5.4878,0.24842 5.4878,0.60976 0,0.35834 2.12216,0.60975 5.14694,0.60975 2.83082,0 5.29117,0.23336 5.46744,0.51857 0.17627,0.2852 2.38541,0.69311 4.9092,0.90644 2.52379,0.21334 5.07107,0.63395 5.66061,0.93469 2.27522,1.16063 4.20193,1.85321 6.25484,2.24837 1.17378,0.22594 2.40854,0.59689 2.7439,0.82434 0.33537,0.22744 2.1189,0.93379 3.96342,1.56965 1.84451,0.63587 4.03963,1.51396 4.87805,1.95133 0.83841,0.43736 1.86737,0.79689 2.28658,0.79896 0.41921,0.002 0.7622,0.27814 0.7622,0.61351 0,0.33536 0.41158,0.60975 0.91463,0.60975 0.50305,0 0.91463,0.24386 0.91463,0.5419 0,0.29804 0.96037,0.72206 2.13415,0.94226 1.17378,0.22021 2.13415,0.66233 2.13415,0.9825 0,0.32017 0.41158,0.58212 0.91463,0.58212 0.50305,0 0.91463,0.26917 0.91463,0.59814 0,0.32898 0.68598,0.77031 1.5244,0.98074 0.83841,0.21043 1.52439,0.58403 1.52439,0.83023 0,0.2462 0.96036,0.96483 2.13414,1.59695 1.17378,0.63212 2.13415,1.36131 2.13415,1.62041 0,0.2591 0.31328,0.4711 0.69618,0.4711 0.3829,0 1.48285,0.82317 2.44432,1.82926 0.96149,1.0061 2.027,1.82927 2.36781,1.82927 0.34081,0 2.2306,1.64634 4.19953,3.65854 1.96893,2.01219 3.88282,3.65854 4.25309,3.65854 0.37027,0 0.67321,0.23339 0.67321,0.51865 0,0.28526 1.78354,2.37382 3.96342,4.64124 2.17988,2.26742 3.96341,4.43841 3.96341,4.82442 0,0.38602 0.68598,1.21699 1.52439,1.84661 0.83842,0.62963 1.52439,1.51792 1.52439,1.974 0,0.45607 0.212,0.82922 0.4711,0.82922 0.2591,0 0.98829,0.96037 1.62041,2.13415 0.63212,1.17378 1.35075,2.13414 1.59695,2.13414 0.2462,0 0.6198,0.68598 0.83023,1.52439 0.21043,0.83842 0.65176,1.5244 0.98073,1.5244 0.32898,0 0.59815,0.41158 0.59815,0.91463 0,0.50305 0.26195,0.91463 0.58212,0.91463 0.32017,0 0.7623,0.96037 0.9825,2.13415 0.2202,1.17378 0.64422,2.13415 0.94226,2.13415 0.29804,0 0.5419,0.41158 0.5419,0.91463 0,0.50305 0.26195,0.91463 0.58212,0.91463 0.32017,0 0.7623,0.96037 0.9825,2.13415 0.2202,1.17378 0.64422,2.13415 0.94226,2.13415 0.29804,0 0.54359,0.48018 0.54565,1.06707 0.002,0.58689 0.41365,1.85301 0.91464,2.8136 0.50098,0.9606 0.91087,2.26395 0.91087,2.89635 0,0.63239 0.24324,1.14981 0.54053,1.14981 0.29729,0 0.72472,1.22836 0.94986,2.72969 0.22514,1.50132 0.66788,2.88947 0.98387,3.08476 0.31599,0.1953 0.57452,1.16206 0.57452,2.14836 0,0.98631 0.2538,1.79328 0.56399,1.79328 0.31019,0 0.75716,2.46952 0.99328,5.48781 0.23611,3.01829 0.6683,5.4878 0.96041,5.4878 0.29211,0 0.53111,2.8811 0.53111,6.40244 0,3.86179 0.24196,6.40244 0.60975,6.40244 0.33537,0 0.60976,0.94417 0.60976,2.09816 0,1.15399 -0.27439,2.26774 -0.60976,2.47501 -0.33639,0.2079 -0.60975,2.9415 -0.60975,6.09756 0,3.14639 -0.2416,5.87003 -0.53689,6.05253 -0.29528,0.18249 -0.7315,2.6682 -0.96937,5.52378 -0.23787,2.8556 -0.68224,5.19199 -0.98751,5.19199 -0.30526,0 -0.55502,0.80697 -0.55502,1.79328 0,0.9863 -0.25853,1.95306 -0.57452,2.14836 -0.31599,0.19529 -0.75873,1.58344 -0.98387,3.08476 -0.22514,1.50133 -0.65257,2.72969 -0.94986,2.72969 -0.29729,0 -0.54053,0.51742 -0.54053,1.14981 0,0.6324 -0.40989,1.93575 -0.91087,2.89635 -0.50099,0.96059 -0.91257,2.22671 -0.91464,2.8136 -0.002,0.58689 -0.24761,1.06707 -0.54565,1.06707 -0.29804,0 -0.72206,0.96037 -0.94226,2.13415 -0.2202,1.17378 -0.66233,2.13415 -0.9825,2.13415 -0.32017,0 -0.58212,0.41158 -0.58212,0.91463 0,0.50305 -0.2526,0.91463 -0.56131,0.91463 -0.30872,0 -0.75717,0.89176 -0.99656,1.98169 -0.23938,1.08992 -0.91581,2.31827 -1.50316,2.72967 -0.58736,0.4114 -1.25483,1.49272 -1.48328,2.40292 -0.22845,0.91021 -0.90653,2.08277 -1.50684,2.60569 -0.60031,0.52292 -1.27837,1.5428 -1.50679,2.26639 -0.22842,0.72359 -0.81645,1.46955 -1.30674,1.65769 -0.49028,0.18814 -0.89142,0.63755 -0.89142,0.99868 0,0.36113 -0.68598,1.34258 -1.52439,2.181 -0.83842,0.83841 -1.52439,1.78273 -1.52439,2.09848 0,0.58368 -14.40733,15.22414 -14.98171,15.22414 -0.34725,0 -1.45948,0.88268 -3.49438,2.77322 -0.73931,0.68686 -1.82366,1.43282 -2.40966,1.65769 -0.58601,0.22487 -1.06547,0.67337 -1.06547,0.99666 0,0.3233 -0.61738,0.78274 -1.37195,1.021 -0.75458,0.23825 -1.7998,0.92436 -2.32272,1.52467 -0.52292,0.60031 -1.68908,1.27679 -2.59146,1.50327 -0.90238,0.22649 -1.6407,0.59494 -1.6407,0.81878 0,0.22385 -1.23216,0.94867 -2.73813,1.61073 -1.50597,0.66205 -2.74072,1.40952 -2.7439,1.66105 -0.003,0.25152 -0.41736,0.45732 -0.92041,0.45732 -0.50305,0 -0.91463,0.26195 -0.91463,0.58212 0,0.32017 -0.96037,0.7623 -2.13415,0.9825 -1.17378,0.2202 -2.13418,0.57562 -2.13422,0.78982 -4e-5,0.2142 -1.78358,0.92787 -3.96341,1.58592 -2.17985,0.65805 -3.96335,1.38688 -3.96335,1.61961 0,0.23273 -1.37164,0.6118 -3.04809,0.84237 -1.67646,0.23057 -3.2018,0.66791 -3.38965,0.97185 -0.18785,0.30395 -0.98846,0.55263 -1.77913,0.55263 -0.79068,0 -1.52906,0.26815 -1.64085,0.59588 -0.11179,0.32773 -2.60417,0.7798 -5.53862,1.00459 -2.93445,0.22479 -5.33536,0.64263 -5.33536,0.92852 0,0.28589 -2.05793,0.5198 -4.57317,0.5198 -2.64228,0 -4.57318,0.25745 -4.57318,0.60975 0,0.36134 -2.23577,0.60976 -5.4878,0.60976 -3.25203,0 -5.4878,-0.24842 -5.4878,-0.60976 z m 23.14117,-40.1805 c 0.18393,-0.28906 1.77498,-0.72171 3.53565,-0.96146 1.76068,-0.23974 3.20122,-0.68453 3.20122,-0.98843 0,-0.3039 0.68598,-0.55254 1.52439,-0.55254 0.83842,0 1.52439,-0.23932 1.52439,-0.53182 0,-0.2925 1.09757,-0.70733 2.43903,-0.92184 1.34146,-0.21451 2.43902,-0.66116 2.43902,-0.99257 0,-0.3314 0.54878,-0.60255 1.21952,-0.60255 0.67073,0 1.21951,-0.25259 1.21951,-0.5613 0,-0.30872 0.82317,-0.74211 1.82927,-0.96309 1.00609,-0.22097 1.82926,-0.65436 1.82926,-0.96308 0,-0.30871 0.30152,-0.56131 0.67005,-0.56131 0.94519,0 5.04517,-1.95785 5.50672,-2.62961 0.21123,-0.30745 1.44599,0.56956 2.7439,1.94894 1.2979,1.37936 2.64224,2.50839 2.98741,2.50894 0.34517,5.5e-4 1.02223,0.54854 1.50458,1.21776 0.48234,0.66922 1.77767,1.38574 2.87851,1.59225 1.10083,0.20652 2.00152,0.61935 2.00152,0.91739 0,0.29804 1.92073,0.54189 4.26829,0.54189 2.43902,0 4.26829,-0.26132 4.26829,-0.60975 0,-0.33537 0.53515,-0.60976 1.18922,-0.60976 0.65406,0 1.40864,-0.36368 1.67683,-0.80817 0.26818,-0.4445 0.97336,-0.98681 1.56705,-1.20513 0.59369,-0.21831 1.24537,-1.22659 1.44817,-2.2406 0.20281,-1.01401 0.60882,-1.84366 0.90227,-1.84366 0.96901,0 0.58782,-8.00376 -0.49845,-10.46584 -0.56758,-1.28647 -1.25356,-2.33904 -1.52439,-2.33904 -0.27082,0 -0.4924,-0.36837 -0.4924,-0.81861 0,-0.45024 -0.96037,-1.33581 -2.13415,-1.96793 -1.17378,-0.63212 -2.13415,-1.21903 -2.13415,-1.30424 0,-0.0852 1.71494,-1.90822 3.81098,-4.05115 4.54341,-4.64504 7.16463,-7.76714 7.16463,-8.53368 0,-0.30767 0.50953,-1.00316 1.13229,-1.54555 0.62276,-0.54239 1.32722,-1.60353 1.56548,-2.3581 0.23826,-0.75458 0.68909,-1.37196 1.00186,-1.37196 0.31276,0 0.56866,-0.41158 0.56866,-0.91463 0,-0.50305 0.26196,-0.91463 0.58213,-0.91463 0.32017,0 0.7623,-0.96037 0.9825,-2.13415 0.2202,-1.17378 0.64422,-2.13415 0.94226,-2.13415 0.29804,0 0.5419,-0.41158 0.5419,-0.91463 0,-0.50305 0.26195,-0.91464 0.58212,-0.91464 0.32017,0 0.7623,-0.96036 0.9825,-2.13414 0.2202,-1.17378 0.62741,-2.13415 0.9049,-2.13415 0.27749,0 0.6902,-1.23813 0.91713,-2.7514 0.22693,-1.51327 0.65533,-2.90142 0.952,-3.08476 0.29666,-0.18336 0.53939,-1.11748 0.53939,-2.07584 0,-0.95836 0.34299,-1.85677 0.7622,-1.99648 0.58008,-0.19332 0.76219,-3.58051 0.76219,-14.1766 0,-10.59594 -0.18211,-13.98334 -0.76219,-14.17688 -0.41921,-0.13987 -0.7622,-1.1918 -0.7622,-2.33763 0,-1.14583 -0.23932,-2.08333 -0.53182,-2.08333 -0.29251,0 -0.70733,-1.09757 -0.92184,-2.43903 -0.21451,-1.34146 -0.66117,-2.43902 -0.99257,-2.43902 -0.3314,0 -0.60255,-0.57505 -0.60255,-1.27788 0,-1.3488 -1.80352,-4.81968 -2.50439,-4.81968 -0.2267,0 -0.59028,-0.70961 -0.80796,-1.57691 -0.21768,-0.8673 -1.07059,-2.25172 -1.89537,-3.0765 -0.82478,-0.82477 -1.49959,-1.72553 -1.49959,-2.00168 0,-0.62531 -9.02128,-9.8297 -10.67639,-10.8931 -0.66762,-0.42895 -1.69404,-0.94113 -2.28093,-1.1382 -0.58689,-0.19706 -1.06707,-0.58218 -1.06707,-0.85584 0,-0.27365 -0.61738,-0.69248 -1.37195,-0.93074 -0.75458,-0.23825 -1.81529,-0.94221 -2.35713,-1.56434 -0.54184,-0.62213 -1.91379,-1.31201 -3.04878,-1.53305 -1.13499,-0.22104 -2.2008,-0.56454 -2.36849,-0.76333 -0.85342,-1.01174 -3.4612,-1.99213 -6.14411,-2.30988 -1.65123,-0.19556 -3.00223,-0.59174 -3.00223,-0.88039 0,-0.28865 -1.08136,-0.52483 -2.40303,-0.52483 -1.32167,0 -2.57263,-0.27439 -2.77989,-0.60975 -0.50073,-0.8102 -15.96269,-0.8102 -16.46342,0 -0.20727,0.33536 -1.57922,0.60975 -3.04878,0.60975 -1.46956,0 -2.82194,0.24273 -3.0053,0.5394 -0.18334,0.29667 -1.57149,0.72507 -3.08476,0.952 -1.51327,0.22693 -2.7514,0.67017 -2.7514,0.98499 0,0.31482 -0.68598,0.5724 -1.52439,0.5724 -0.83842,0 -1.52439,0.24385 -1.52439,0.54189 0,0.29804 -0.96037,0.72206 -2.13415,0.94227 -1.17378,0.2202 -2.13415,0.66232 -2.13415,0.98249 0,0.32017 -0.41158,0.58213 -0.91463,0.58213 -0.50305,0 -0.91463,0.27439 -0.91463,0.60975 0,0.33537 -0.39199,0.60976 -0.87108,0.60976 -0.4791,0 -1.32717,0.45608 -1.88461,1.01352 -0.63888,0.63888 -1.16211,0.78196 -1.4155,0.38706 -0.22109,-0.34455 -1.01936,-0.81913 -1.77394,-1.05461 -0.75457,-0.23548 -1.37195,-0.68405 -1.37195,-0.99682 0,-0.31276 -0.41158,-0.56866 -0.91463,-0.56866 -0.50305,0 -0.91463,-0.27115 -0.91463,-0.60255 0,-0.33141 -1.09757,-0.77806 -2.43903,-0.99257 -1.34146,-0.21451 -2.43902,-0.62934 -2.43902,-0.92184 0,-0.2925 -0.54878,-0.53182 -1.21952,-0.53182 -0.67073,0 -1.21951,-0.25465 -1.21951,-0.56589 0,-0.31123 -1.50914,-0.75443 -3.35366,-0.98489 -1.84451,-0.23045 -3.35366,-0.66178 -3.35366,-0.95851 0,-0.29672 -1.08136,-0.5395 -2.40303,-0.5395 -1.32167,0 -2.57262,-0.27439 -2.77989,-0.60975 -0.21968,-0.35545 -3.65287,-0.60976 -8.23171,-0.60976 -4.57883,0 -8.01203,0.25431 -8.23171,0.60976 -0.20726,0.33536 -1.73261,0.60975 -3.38964,0.60975 -1.65704,0 -3.0128,0.23933 -3.0128,0.53183 0,0.2925 -1.10954,0.70925 -2.46565,0.9261 -1.35611,0.21685 -2.93386,0.64044 -3.5061,0.9413 -2.11531,1.11217 -5.51322,2.47882 -6.16308,2.47882 -0.36852,0 -0.67004,0.27439 -0.67004,0.60976 0,0.33537 -0.41159,0.60976 -0.91464,0.60976 -0.50305,0 -0.91463,0.26916 -0.91463,0.59813 0,0.32898 -0.68598,0.77031 -1.52439,0.98074 -0.83842,0.21043 -1.52439,0.60875 -1.52439,0.88516 0,0.27641 -0.59084,0.69009 -1.31297,0.91929 -1.44327,0.45807 -2.20618,1.07219 -7.37606,5.93743 -1.92835,1.81472 -3.50609,3.51537 -3.50609,3.77921 0,0.26384 -0.63262,1.06599 -1.40581,1.78257 -0.7732,0.71657 -1.59462,1.7084 -1.82539,2.20406 -0.51644,1.10925 -1.83921,3.23269 -2.27069,3.64511 -0.89151,0.85215 -2.42494,3.73046 -2.42494,4.55172 0,0.51485 -0.25758,0.93609 -0.5724,0.93609 -0.31482,0 -0.75756,1.23475 -0.98387,2.7439 -0.22631,1.50915 -0.65471,2.7439 -0.95199,2.7439 -0.29729,0 -0.54052,0.66311 -0.54052,1.47358 0,0.81047 -0.34299,1.58786 -0.7622,1.72753 -1.10621,0.36856 -1.10621,32.25294 0,32.62191 0.41921,0.13982 0.7622,1.19172 0.7622,2.33755 0,1.14584 0.23932,2.08334 0.53182,2.08334 0.2925,0 0.70733,1.09756 0.92184,2.43902 0.21451,1.34146 0.66116,2.43902 0.99257,2.43902 0.3314,0 0.61445,0.61738 0.62899,1.37196 0.0145,0.75457 0.68947,2.46951 1.49983,3.81097 0.81037,1.34146 1.94982,3.39939 2.53212,4.57317 0.58231,1.17378 1.41653,2.35357 1.85383,2.62176 0.4373,0.26819 0.79509,0.88325 0.79509,1.36679 0,0.48354 0.54878,1.22188 1.21952,1.64076 0.67073,0.41888 1.21951,1.10687 1.21951,1.52886 0,0.422 1.09756,1.89823 2.43902,3.28051 1.34147,1.38229 2.43903,2.67654 2.43903,2.8761 0,0.19956 1.22836,1.60996 2.72969,3.13422 l 2.7297,2.77137 -1.81506,1.94211 c -0.99829,1.06816 -1.81507,2.11379 -1.81507,2.32361 0,0.20983 -0.41158,0.79309 -0.91463,1.29614 -0.50305,0.50305 -0.91463,1.7182 -0.91463,2.70035 0,0.98214 -0.27439,1.78571 -0.60976,1.78571 -0.74775,0 -0.81733,3.45828 -0.0788,3.91474 0.29205,0.1805 0.69128,1.12959 0.88719,2.1091 0.37204,1.86021 2.8296,4.95177 3.93629,4.95177 0.3528,0 0.75579,0.34299 0.89552,0.7622 0.18274,0.54821 2.13842,0.76219 6.96581,0.76219 h 6.71174 l 2.12756,-2.19079 c 1.17016,-1.20495 2.9833,-2.69631 4.02922,-3.31415 1.85366,-1.09498 1.96019,-1.09356 4.21965,0.0566 1.27488,0.649 2.45517,1.35132 2.62285,1.56071 0.16769,0.20939 1.19665,0.57418 2.28659,0.81064 1.08994,0.23646 1.98171,0.61554 1.98171,0.84239 0,0.4909 2.68145,1.69906 5.03048,2.26654 0.92226,0.2228 1.67683,0.64973 1.67683,0.94875 0,0.299 0.6311,0.54365 1.40244,0.54365 0.77134,0 1.69262,0.29018 2.04729,0.64485 0.35466,0.35466 2.19308,0.80464 4.08536,0.99994 1.89229,0.1953 3.44052,0.58041 3.44052,0.8558 0,1.12615 34.6197,1.12795 35.3363,0.002 z"
         id="path246" />
      <path
         style="fill:#00ffff;stroke-width:0.609756"
         d="m 201.07758,273.61941 c -0.77311,-0.74982 -2.17376,-2.39856 -3.11257,-3.66387 -0.93881,-1.26531 -2.31874,-2.91237 -3.06651,-3.66014 -0.74777,-0.74777 -1.54357,-1.83905 -1.76844,-2.42505 -0.22487,-0.58601 -0.69186,-1.06547 -1.03775,-1.06547 -0.34589,0 -0.6289,-0.51943 -0.6289,-1.15428 0,-0.63485 -0.41158,-1.31221 -0.91463,-1.50525 -0.50305,-0.19304 -0.91463,-0.90837 -0.91463,-1.58963 0,-0.68125 -0.20741,-1.23865 -0.46091,-1.23865 -0.53268,0 -1.72635,-2.59386 -2.31499,-5.03048 -0.2228,-0.92226 -0.62188,-1.67683 -0.88686,-1.67683 -0.26497,0 -0.67477,-1.92182 -0.91066,-4.27071 -0.23589,-2.34888 -0.67532,-4.423 -0.97652,-4.60915 -0.70308,-0.43453 -0.71939,-8.01519 -0.0182,-8.44856 0.2912,-0.17997 0.71641,-1.9797 0.94491,-3.9994 0.2285,-2.0197 0.65442,-3.67218 0.94649,-3.67218 0.29207,0 0.70368,-0.78609 0.91471,-1.74687 0.21102,-0.96078 0.9188,-2.32126 1.57283,-3.02329 0.65404,-0.70203 1.18917,-1.45745 1.18917,-1.67873 0,-0.22127 0.82317,-1.33985 1.82926,-2.48574 1.0061,-1.14588 1.82927,-2.30505 1.82927,-2.57594 0,-0.27088 0.96037,-1.00971 2.13415,-1.64183 1.17378,-0.63212 2.13415,-1.31716 2.13415,-1.52231 0,-0.20515 1.09441,-0.89733 2.43202,-1.53817 1.33762,-0.64085 2.43518,-1.34916 2.43903,-1.57404 0.004,-0.22488 0.82702,-0.58898 1.82927,-0.80911 1.00225,-0.22013 1.97881,-0.65352 2.17013,-0.96308 0.19132,-0.30957 1.15484,-0.56285 2.14114,-0.56285 0.98631,0 1.79328,-0.27439 1.79328,-0.60975 0,-0.36585 2.43903,-0.60976 6.09756,-0.60976 3.65854,0 6.09757,0.24391 6.09757,0.60976 0,0.33536 0.96036,0.60975 2.13414,0.60975 1.17378,0 2.13415,0.25028 2.13415,0.55616 0,0.30589 1.09756,0.7416 2.43902,0.96824 2.05753,0.34761 2.43903,0.64212 2.43903,1.88286 0,0.80894 -0.27439,1.47079 -0.60976,1.47079 -0.33536,0 -0.60976,0.38022 -0.60976,0.84494 0,0.46471 -0.40989,1.63087 -0.91087,2.59146 -0.50099,0.96059 -0.91257,2.22671 -0.91464,2.8136 -0.002,0.58689 -0.247,1.06708 -0.5443,1.06708 -0.2973,0 -0.69201,0.75457 -0.87712,1.67683 -0.18511,0.92225 -0.61589,2.91158 -0.95729,4.42073 -0.34139,1.50914 -0.63266,4.04725 -0.64727,5.64024 -0.0146,1.59299 -0.30094,2.89634 -0.63631,2.89634 -0.35868,0 -0.60976,2.13415 -0.60976,5.18293 0,3.04878 0.25108,5.18293 0.60976,5.18293 0.33537,0 0.60976,0.29549 0.60976,0.65666 0,0.36116 0.80206,1.45872 1.78236,2.43902 0.9803,0.9803 2.07786,1.78237 2.43902,1.78237 1.37216,0 0.56398,1.8739 -1.83066,4.24473 -1.36802,1.35442 -2.72148,2.46258 -3.00769,2.46258 -0.2862,0 -0.69009,0.53475 -0.89752,1.18832 -0.20744,0.65358 -0.89787,1.35359 -1.53429,1.55559 -0.63643,0.20199 -1.3224,0.88796 -1.52439,1.52439 -0.202,0.63642 -0.93574,1.33755 -1.63055,1.55808 -0.6948,0.22052 -4.2073,3.32145 -7.80556,6.89095 -8.20254,8.13698 -8.66951,8.43137 -10.5229,6.63379 z"
         id="path248" />
      <path
         style="fill:#00ffff;stroke-width:0.609756"
         d="m 295.73171,273.47561 c -0.4175,-0.50305 -0.98773,-0.91463 -1.26719,-0.91463 -0.27946,0 -2.98705,-2.46952 -6.01686,-5.48781 -3.02982,-3.01829 -5.66025,-5.4878 -5.84541,-5.4878 -0.38403,0 -1.8234,-1.14709 -2.90584,-2.31579 -0.40315,-0.43527 -1.07717,-1.12125 -1.49783,-1.52439 -0.42067,-0.40315 -2.2489,-2.17354 -4.06275,-3.93421 -1.81386,-1.76068 -3.47059,-3.20122 -3.68163,-3.20122 -0.21105,0 -0.758,-0.34299 -1.21546,-0.7622 -0.68948,-0.63182 -0.32002,-1.25796 2.15988,-3.66049 l 2.99162,-2.89829 -0.0265,-7.46756 c -0.0146,-4.10716 -0.30588,-8.70232 -0.64727,-10.21146 -0.3414,-1.50915 -0.77218,-3.49848 -0.95729,-4.42074 -0.18511,-0.92225 -0.54475,-1.67682 -0.79919,-1.67682 -0.25444,0 -0.64004,-1.10955 -0.85689,-2.46566 -0.35978,-2.24996 -1.3637,-4.692 -2.24509,-5.46117 -0.68116,-0.59445 -1.13204,-2.45133 -0.80325,-3.30814 0.18343,-0.47801 1.40957,-1.0509 2.72476,-1.27311 1.3152,-0.2222 2.39126,-0.65427 2.39126,-0.96016 0,-0.30588 0.96037,-0.55616 2.13415,-0.55616 1.17378,0 2.13414,-0.27439 2.13414,-0.60975 0,-0.36134 2.23578,-0.60976 5.48781,-0.60976 3.25203,0 5.4878,0.24842 5.4878,0.60976 0,0.33536 0.96037,0.60975 2.13415,0.60975 1.17378,0 2.13415,0.23933 2.13415,0.53183 0,0.2925 1.09756,0.70733 2.43902,0.92184 1.34146,0.21451 2.43903,0.66116 2.43903,0.99257 0,0.3314 0.41158,0.60255 0.91463,0.60255 0.50305,0 0.91463,0.2559 0.91463,0.56866 0,0.31277 0.6043,0.76046 1.34289,0.99488 1.72168,0.54644 8.74878,7.5876 9.29733,9.31593 0.22967,0.72361 0.67347,1.31565 0.98624,1.31565 0.31277,0 0.56867,0.41158 0.56867,0.91463 0,0.50305 0.26195,0.91464 0.58212,0.91464 0.32017,0 0.77134,1.02896 1.00259,2.28658 0.23125,1.25762 0.72387,2.48237 1.0947,2.72166 0.94482,0.60968 0.9323,20.48269 -0.0133,21.08107 -0.37813,0.23929 -0.88243,1.60123 -1.12067,3.02654 -0.23823,1.4253 -0.68342,2.59146 -0.9893,2.59146 -0.30589,0 -0.55616,0.54878 -0.55616,1.21951 0,0.67074 -0.25259,1.21952 -0.56131,1.21952 -0.30872,0 -0.7304,0.76987 -0.93707,1.71083 -0.20667,0.94095 -0.91445,2.09909 -1.57284,2.57363 -0.65839,0.47454 -1.19708,1.15425 -1.19708,1.51047 0,0.81312 -1.94816,3.34595 -5.4878,7.13474 -1.50915,1.61538 -3.09771,3.3457 -3.53014,3.84515 -0.99344,1.14742 -1.61103,1.14585 -2.56742,-0.007 z"
         id="path250" />
      <path
         style="fill:#ffdd55;stroke-width:0.609756"
         d="m 239.63415,295.12195 c 0,-0.33536 -1.08137,-0.60975 -2.40304,-0.60975 -1.32167,0 -2.55787,-0.25052 -2.7471,-0.5567 -0.18923,-0.30619 -1.44018,-0.74189 -2.77989,-0.96823 -1.3397,-0.22635 -2.43583,-0.59483 -2.43583,-0.81885 0,-0.22402 -0.82317,-0.77168 -1.82927,-1.21702 -2.01236,-0.89076 -2.33286,-2.0656 -0.8934,-3.27492 0.51473,-0.43243 2.69897,-2.50118 4.85387,-4.59721 2.1549,-2.09604 4.08732,-3.81098 4.29426,-3.81098 0.20694,0 3.28541,-2.88109 6.84104,-6.40244 3.55564,-3.52134 6.80716,-6.40244 7.22562,-6.40244 0.41846,0 1.30042,0.68598 1.95992,1.52439 0.6595,0.83842 1.45253,1.5244 1.7623,1.5244 0.30977,0 3.07302,2.46951 6.14055,5.4878 3.06754,3.01829 5.74219,5.4878 5.94368,5.4878 0.20148,0 1.84718,1.44055 3.6571,3.20122 1.80993,1.76068 3.71276,3.55503 4.22853,3.98746 1.19928,1.00551 1.21335,2.56742 0.0231,2.56742 -0.50305,0 -0.91463,0.27439 -0.91463,0.60976 0,0.33536 -0.68598,0.60975 -1.52439,0.60975 -0.83842,0 -1.52439,0.27115 -1.52439,0.60255 0,0.33141 -1.09757,0.77806 -2.43903,0.99257 -1.34146,0.21451 -2.43902,0.62934 -2.43902,0.92184 0,0.2925 -0.96037,0.53183 -2.13415,0.53183 -1.17378,0 -2.13415,0.27439 -2.13415,0.60975 0,0.38259 -3.86178,0.60976 -10.36585,0.60976 -6.50407,0 -10.36585,-0.22717 -10.36585,-0.60976 z"
         id="path252" />
      <path
         style="fill:#ffdd55;stroke-width:0.609756"
         d="m 188.05429,307.9437 c -1.74936,-0.70742 -2.98914,-3.80346 -2.15053,-5.37042 0.78201,-1.46121 23.26348,-23.13095 28.64821,-27.61383 l 3.88124,-3.2312 -0.22709,2.85539 -0.2271,2.85538 3.35805,3.8e-4 3.35805,3.8e-4 -0.20919,-3.01807 -0.20919,-3.01806 -2.65566,-0.18353 -2.65567,-0.18353 4.38925,-4.41869 c 4.22362,-4.25195 12.77794,-11.73985 13.41183,-11.73985 0.16867,0 1.22589,0.90634 2.34936,2.0141 1.12348,1.10775 2.72866,2.50008 3.56708,3.09406 l 1.52439,1.07995 -3.03241,2.54619 c -1.66782,1.4004 -6.34114,5.70167 -10.38515,9.55838 -4.04402,3.85671 -10.22456,9.6189 -13.73454,12.80488 -3.50998,3.18598 -9.26349,8.57055 -12.78557,11.96572 -10.32158,9.94965 -12.70702,11.4211 -16.21536,10.00237 z"
         id="path254" />
      <path
         style="fill:#00ffff;stroke-width:0.609756"
         d="m 243.29268,295.07195 c -7.65243,-0.66942 -17.05749,-3.842 -17.06931,-5.75794 -0.006,-1.04749 22.47138,-22.25576 23.55749,-22.22693 1.22865,0.0326 23.99963,21.12317 23.99963,22.22855 0,0.86138 -2.75259,2.10431 -9.45122,4.26771 -4.92618,1.59096 -13.18544,2.17541 -21.03659,1.48861 z"
         id="path256" />
      <text
         xml:space="preserve"
         style="font-style:normal;font-variant:normal;font-weight:normal;font-stretch:normal;font-size:33.5711px;line-height:1.25;font-family:'Bernard MT Condensed';-inkscape-font-specification:'Bernard MT Condensed, Normal';font-variant-ligatures:normal;font-variant-caps:normal;font-variant-numeric:normal;font-variant-east-asian:normal;fill:#000000;fill-opacity:1;stroke:none"
         x="225.60976"
         y="173.17073"
         id="text300"><tspan
           sodipodi:role="line"
           id="tspan298"
           x="225.60976"
           y="173.17073">D</tspan></text>
      <text
         xml:space="preserve"
         style="font-style:normal;font-variant:normal;font-weight:normal;font-stretch:normal;font-size:33.5711px;line-height:1.25;font-family:'Bernard MT Condensed';-inkscape-font-specification:'Bernard MT Condensed, Normal';font-variant-ligatures:normal;font-variant-caps:normal;font-variant-numeric:normal;font-variant-east-asian:normal;fill:#000000;fill-opacity:1;stroke:none"
         x="245.7317"
         y="173.78049"
         id="text304"><tspan
           sodipodi:role="line"
           id="tspan302"
           x="245.7317"
           y="173.78049">R</tspan></text>
      <text
         xml:space="preserve"
         style="font-style:normal;font-variant:normal;font-weight:normal;font-stretch:normal;font-size:33.5711px;line-height:1.25;font-family:'Bernard MT Condensed';-inkscape-font-specification:'Bernard MT Condensed, Normal';font-variant-ligatures:normal;font-variant-caps:normal;font-variant-numeric:normal;font-variant-east-asian:normal;fill:#000000;fill-opacity:1;stroke:none"
         x="351.9295"
         y="120.62473"
         id="text308"
         transform="rotate(43.323097)"><tspan
           sodipodi:role="line"
           id="tspan306"
           x="351.9295"
           y="120.62473">P</tspan></text>
      <text
         xml:space="preserve"
         style="font-style:normal;font-variant:normal;font-weight:normal;font-stretch:normal;font-size:33.5711px;line-height:1.25;font-family:'Bernard MT Condensed';-inkscape-font-specification:'Bernard MT Condensed, Normal';font-variant-ligatures:normal;font-variant-caps:normal;font-variant-numeric:normal;font-variant-east-asian:normal;fill:#000000;fill-opacity:1;stroke:none"
         x="359.74997"
         y="156.32764"
         id="text312"
         transform="rotate(37.304822)"><tspan
           sodipodi:role="line"
           id="tspan310"
           x="359.74997"
           y="156.32764">R</tspan></text>
      <text
         xml:space="preserve"
         style="font-style:normal;font-variant:normal;font-weight:normal;font-stretch:normal;font-size:33.5711px;line-height:1.25;font-family:'Bernard MT Condensed';-inkscape-font-specification:'Bernard MT Condensed, Normal';font-variant-ligatures:normal;font-variant-caps:normal;font-variant-numeric:normal;font-variant-east-asian:normal;fill:#000000;fill-opacity:1;stroke:none"
         x="343.21948"
         y="230.81758"
         id="text316"
         transform="rotate(25.02629)"><tspan
           sodipodi:role="line"
           id="tspan314"
           x="343.21948"
           y="230.81758">E</tspan></text>
      <text
         xml:space="preserve"
         style="font-style:normal;font-variant:normal;font-weight:normal;font-stretch:normal;font-size:33.5711px;line-height:1.25;font-family:'Bernard MT Condensed';-inkscape-font-specification:'Bernard MT Condensed, Normal';font-variant-ligatures:normal;font-variant-caps:normal;font-variant-numeric:normal;font-variant-east-asian:normal;fill:#000000;fill-opacity:1;stroke:none"
         x="240.85367"
         y="361.58533"
         id="text320"><tspan
           sodipodi:role="line"
           id="tspan318"
           x="240.85367"
           y="361.58533">T</tspan></text>
      <text
         xml:space="preserve"
         style="font-style:normal;font-variant:normal;font-weight:normal;font-stretch:normal;font-size:33.5711px;line-height:1.25;font-family:'Bernard MT Condensed';-inkscape-font-specification:'Bernard MT Condensed, Normal';font-variant-ligatures:normal;font-variant-caps:normal;font-variant-numeric:normal;font-variant-east-asian:normal;fill:#000000;fill-opacity:1;stroke:none"
         x="126.21253"
         y="432.32037"
         id="text324"
         transform="rotate(-20.914849)"><tspan
           sodipodi:role="line"
           id="tspan322"
           x="126.21253"
           y="432.32037">Z</tspan></text>
      <text
         xml:space="preserve"
         style="font-style:normal;font-variant:normal;font-weight:normal;font-stretch:normal;font-size:33.5711px;line-height:1.25;font-family:'Bernard MT Condensed';-inkscape-font-specification:'Bernard MT Condensed, Normal';font-variant-ligatures:normal;font-variant-caps:normal;font-variant-numeric:normal;font-variant-east-asian:normal;fill:#000000;fill-opacity:1;stroke:none"
         x="114.98696"
         y="443.08218"
         id="text328"
         transform="rotate(-25.127629)"><tspan
           sodipodi:role="line"
           id="tspan326"
           x="114.98696"
           y="443.08218">E</tspan></text>
      <text
         xml:space="preserve"
         style="font-style:normal;font-variant:normal;font-weight:normal;font-stretch:normal;font-size:33.5711px;line-height:1.25;font-family:'Bernard MT Condensed';-inkscape-font-specification:'Bernard MT Condensed, Normal';font-variant-ligatures:normal;font-variant-caps:normal;font-variant-numeric:normal;font-variant-east-asian:normal;fill:#000000;fill-opacity:1;stroke:none"
         x="71.314133"
         y="456.08502"
         id="text332"
         transform="rotate(-33.445798)"><tspan
           sodipodi:role="line"
           id="tspan330"
           x="71.314133"
           y="456.08502">L</tspan></text>
      <text
         xml:space="preserve"
         style="font-style:normal;font-variant:normal;font-weight:normal;font-stretch:normal;font-size:33.5711px;line-height:1.25;font-family:'Bernard MT Condensed';-inkscape-font-specification:'Bernard MT Condensed, Normal';font-variant-ligatures:normal;font-variant-caps:normal;font-variant-numeric:normal;font-variant-east-asian:normal;fill:#000000;fill-opacity:1;stroke:none"
         x="264.02438"
         y="173.78049"
         id="text336"><tspan
           sodipodi:role="line"
           id="tspan334"
           x="264.02438"
           y="173.78049">.</tspan></text>
      <path
         style="fill:none;stroke:#000000;stroke-width:1px;stroke-linecap:butt;stroke-linejoin:miter;stroke-opacity:1"
         d="m 245.76273,131.50462 c 6.05637,-0.0354 12.10484,0.49786 18.10883,1.29349 9.83739,1.30362 19.62933,3.32752 28.8879,6.8986 10.61928,4.09591 20.39745,10.17894 29.31906,17.24651 9.67764,7.66649 18.44081,16.56042 25.4386,26.73208 6.84905,9.95547 11.96646,21.09533 15.09069,32.76837 3.64718,13.62692 4.57112,27.90939 3.47114,41.973 -0.94061,12.02602 -3.36391,23.98086 -7.78276,35.20511 -5.44158,13.82209 -13.88165,26.40829 -24.29619,37.00066 -15.79064,16.06027 -36.17211,27.52071 -58.05589,32.8477 -13.84244,3.36955 -28.30527,4.32033 -42.42396,2.41517 -26.2432,-3.54123 -50.78694,-17.08118 -68.81601,-36.47702 -13.26781,-14.27364 -23.15538,-31.69325 -28.45673,-50.44604 -5.09933,-18.03818 -5.9322,-37.35319 -1.72465,-55.61998 C 139.43257,202.02667 151.11038,182.54416 166.5,167 c 20.90061,-21.11049 49.55654,-35.32183 79.26273,-35.49538 z"
         id="path104"
         inkscape:path-effect="#path-effect106"
         inkscape:original-d="m 245.76273,131.50462 c 26.41991,-11.8328 12.07355,0.86332 18.10883,1.29349 6.03528,0.43016 19.2596,4.60006 28.8879,6.8986 9.6283,2.29853 19.54704,11.49867 29.31906,17.24651 9.77202,5.74783 16.96007,17.82239 25.4386,26.73208 8.47853,8.9097 10.06146,21.84658 15.09069,32.76837 5.02923,10.92178 2.31509,27.983 3.47114,41.973 1.15605,13.99 -5.18751,23.47108 -7.78276,35.20511 -2.59526,11.73404 -16.19646,24.66811 -24.29619,37.00066 -8.09973,12.33255 -38.70292,21.89947 -58.05589,32.8477 -19.35296,10.94823 -28.28164,1.61111 -42.42396,2.41517 -14.14232,0.80406 -45.87634,-24.31702 -68.81601,-36.47702 -22.93967,-12.16001 -18.97015,-33.62969 -28.45673,-50.44604 -9.48658,-16.81634 -1.14877,-37.07899 -1.72465,-55.61998 C 133.94687,204.80127 155.84192,185.78176 166.5,167 c 10.65808,-18.78176 52.84282,-23.66259 79.26273,-35.49538 z" />
    </g>
  </g>
</svg>
